<?xml version="1.0" encoding="utf-8"?>
<!-- Generator: Adobe Illustrator 16.0.0, SVG Export Plug-In . SVG Version: 6.00 Build 0)  -->
<!DOCTYPE svg PUBLIC "-//W3C//DTD SVG 1.1//EN" "http://www.w3.org/Graphics/SVG/1.1/DTD/svg11.dtd">
<svg version="1.1" xmlns="http://www.w3.org/2000/svg" xmlns:xlink="http://www.w3.org/1999/xlink" x="0px" y="0px" width="200px"
	 height="200px" viewBox="0 0 200 200" enable-background="new 0 0 200 200" xml:space="preserve">
<g id="圖層_1">
</g>
<g id="圖層_2">
	<circle fill="#998675" cx="100" cy="100" r="100"/>
	<path fill="#FFFFFF" d="M11.5,112.1V87.5H17v9.7h10.7v-9.7h5.5v24.6h-5.5v-10.8H17v10.8H11.5z"/>
	<path fill="#FFFFFF" d="M33.7,112.6h-6.5v-10.8h-9.7v10.8H11V87h6.5v9.7h9.7V87h6.5V112.6z M28.2,111.6h4.5V88h-4.5v9.7H16.5V88H12
		v23.6h4.5v-10.8h11.7V111.6z"/>
	<path fill="#FFFFFF" d="M38.9,102.9c0-1.6,0.4-3.1,1.3-4.5c0.9-1.5,2.1-2.6,3.6-3.4c1.6-0.8,3.3-1.2,5.2-1.2c3,0,5.4,0.9,7.3,2.6
		s2.8,4,2.8,6.6c0,2.7-1,4.9-2.9,6.7c-1.9,1.8-4.3,2.7-7.2,2.7c-1.8,0-3.5-0.4-5.1-1.1s-2.9-1.8-3.7-3.2
		C39.3,106.7,38.9,105,38.9,102.9z M44.2,103.2c0,1.8,0.5,3.1,1.4,4.1c0.9,0.9,2.1,1.4,3.4,1.4c1.4,0,2.5-0.5,3.4-1.4
		c0.9-0.9,1.4-2.3,1.4-4.1c0-1.7-0.5-3.1-1.4-4c-0.9-0.9-2.1-1.4-3.4-1.4c-1.4,0-2.5,0.5-3.4,1.4C44.7,100.1,44.2,101.4,44.2,103.2z
		"/>
	<path fill="#FFFFFF" d="M49.1,113c-1.9,0-3.7-0.4-5.3-1.1c-1.7-0.8-3-1.9-3.9-3.4c-0.9-1.5-1.3-3.3-1.3-5.5c0-1.6,0.5-3.3,1.3-4.8
		c0.9-1.5,2.2-2.7,3.8-3.6c1.6-0.8,3.4-1.2,5.4-1.2c3.1,0,5.7,0.9,7.6,2.8c2,1.8,3,4.2,3,7c0,2.8-1,5.2-3,7.1
		C54.6,112.1,52.1,113,49.1,113z M49,94.4c-1.8,0-3.5,0.4-5,1.1c-1.5,0.7-2.6,1.8-3.4,3.2c-0.8,1.4-1.2,2.8-1.2,4.3
		c0,1.9,0.4,3.6,1.2,5c0.8,1.3,2,2.4,3.5,3c1.6,0.7,3.2,1.1,4.9,1.1c2.8,0,5.1-0.8,6.9-2.5c1.8-1.7,2.7-3.8,2.7-6.3
		c0-2.5-0.9-4.6-2.7-6.3C54.2,95.2,51.8,94.4,49,94.4z M49,109.2c-1.5,0-2.8-0.5-3.8-1.6c-1-1-1.5-2.5-1.5-4.4
		c0-1.9,0.5-3.4,1.5-4.4c1-1,2.3-1.6,3.8-1.6c1.5,0,2.8,0.5,3.8,1.6c1,1,1.5,2.5,1.5,4.4c0,1.9-0.5,3.4-1.5,4.5
		C51.8,108.6,50.5,109.2,49,109.2z M49,98.2c-1.2,0-2.2,0.4-3.1,1.3c-0.8,0.8-1.2,2.1-1.2,3.7c0,1.6,0.4,2.9,1.2,3.7
		c0.8,0.8,1.8,1.3,3.1,1.3c1.2,0,2.2-0.4,3.1-1.3c0.8-0.8,1.2-2.1,1.2-3.8c0-1.6-0.4-2.8-1.2-3.7C51.3,98.6,50.3,98.2,49,98.2z"/>
	<path fill="#FFFFFF" d="M73.5,94.3V98H70v7.2c0,1.5,0,2.3,0.1,2.6c0.1,0.2,0.2,0.4,0.5,0.6s0.5,0.2,0.9,0.2c0.5,0,1.2-0.1,2.1-0.4
		l0.4,3.7c-1.2,0.5-2.6,0.7-4.1,0.7c-0.9,0-1.8-0.1-2.5-0.4s-1.3-0.6-1.6-1.1c-0.4-0.5-0.6-1.1-0.7-1.9c-0.1-0.5-0.2-1.7-0.2-3.3V98
		h-2.4v-3.8h2.4v-3.5L70,88v6.3H73.5z"/>
	<path fill="#FFFFFF" d="M69.8,113c-1,0-1.9-0.2-2.7-0.5c-0.8-0.3-1.5-0.7-1.9-1.3c-0.4-0.5-0.7-1.2-0.8-2.1
		c-0.1-0.6-0.2-1.7-0.2-3.4v-7.3h-2.4v-4.8h2.4v-3.3l6.2-3.3v6.6H74v4.8h-3.6v6.7c0,2,0.1,2.3,0.1,2.4c0,0.1,0.1,0.2,0.3,0.3
		c0.4,0.3,1.2,0.2,2.5-0.3l0.6-0.2l0.6,4.6l-0.4,0.1C72.9,112.8,71.4,113,69.8,113z M62.9,97.5h2.4v8.3c0,1.6,0,2.7,0.1,3.2
		c0.1,0.7,0.3,1.3,0.6,1.6c0.3,0.4,0.8,0.7,1.4,0.9c0.7,0.3,1.5,0.4,2.3,0.4c1.3,0,2.5-0.2,3.6-0.5l-0.3-2.7c-1.4,0.4-2.2,0.4-2.8,0
		c-0.3-0.2-0.6-0.5-0.7-0.9c-0.1-0.2-0.1-0.7-0.1-2.7v-7.7H73v-2.8h-3.6v-6l-4.2,2.2v3.7h-2.4V97.5z"/>
	<path fill="#FFFFFF" d="M90.3,112.1V87.5h5.3l11.1,16.4V87.5h5.1v24.6h-5.5l-10.9-16v16H90.3z"/>
	<path fill="#FFFFFF" d="M112.3,112.6h-6.3L95.9,97.7v14.9h-6.1V87h6.1l10.3,15.3V87h6.1V112.6z M106.6,111.6h4.7V88h-4.1v17.6
		L95.4,88h-4.5v23.6h4.1V94.5L106.6,111.6z"/>
	<path fill="#FFFFFF" d="M130.2,106.4l5.2,0.8c-0.7,1.7-1.7,3-3.1,3.9s-3.2,1.3-5.4,1.3c-3.4,0-5.9-1-7.6-3
		c-1.3-1.6-1.9-3.7-1.9-6.1c0-3,0.8-5.3,2.5-6.9s3.8-2.5,6.4-2.5c2.9,0,5.2,0.9,6.9,2.6c1.7,1.8,2.5,4.4,2.5,8.1h-13
		c0,1.4,0.5,2.5,1.3,3.3s1.8,1.2,3,1.2c0.8,0,1.5-0.2,2.1-0.6C129.5,108,129.9,107.3,130.2,106.4z M130.5,101.7
		c0-1.4-0.4-2.4-1.2-3.1c-0.7-0.7-1.6-1.1-2.7-1.1c-1.1,0-2,0.4-2.8,1.1c-0.7,0.8-1.1,1.8-1.1,3.1H130.5z"/>
	<path fill="#FFFFFF" d="M126.9,113c-3.5,0-6.2-1.1-7.9-3.2c-1.4-1.7-2-3.9-2-6.5c0-3.1,0.9-5.5,2.7-7.3c1.8-1.8,4.1-2.7,6.8-2.7
		c3.1,0,5.5,0.9,7.2,2.8c1.8,1.8,2.6,4.7,2.6,8.4v0.5h-13c0.1,1,0.5,1.8,1.1,2.4c0.7,0.7,1.6,1,2.6,1c0.7,0,1.3-0.2,1.8-0.5
		c0.5-0.3,0.8-0.9,1.1-1.7l0.1-0.4l6.2,1l-0.2,0.6c-0.7,1.8-1.8,3.2-3.3,4.2C131,112.5,129.1,113,126.9,113z M126.3,94.4
		c-2.4,0-4.5,0.8-6.1,2.4c-1.6,1.6-2.4,3.8-2.4,6.6c0,2.3,0.6,4.3,1.8,5.8c1.5,1.9,3.9,2.8,7.2,2.8c2.1,0,3.8-0.4,5.1-1.3
		c1.2-0.7,2.1-1.8,2.7-3.1l-4.1-0.6c-0.3,0.8-0.8,1.4-1.3,1.8c-0.6,0.5-1.4,0.7-2.4,0.7c-1.3,0-2.4-0.4-3.3-1.3
		c-0.9-0.9-1.4-2.1-1.4-3.6l0-0.5h13.1c-0.1-3.2-0.9-5.6-2.4-7.2C131.3,95.2,129.1,94.4,126.3,94.4z M131,102.2h-8.8v-0.5
		c0-1.4,0.4-2.6,1.3-3.4c0.8-0.8,1.9-1.3,3.1-1.3c1.2,0,2.2,0.4,3.1,1.2c0.8,0.8,1.3,2,1.3,3.5L131,102.2z M123.3,101.2h6.7
		c-0.1-1-0.4-1.7-1-2.3c-0.6-0.6-1.4-0.9-2.4-0.9c-1,0-1.8,0.3-2.4,1C123.7,99.5,123.4,100.2,123.3,101.2z"/>
	<path fill="#FFFFFF" d="M144.9,112.1l-6.2-17.8h5.1l3.7,11.7l3.4-11.7h5L159,106l3.8-11.7h5.1l-6.3,17.8h-5l-3.4-11.5l-3.3,11.5
		H144.9z"/>
	<path fill="#FFFFFF" d="M162,112.6h-5.7l-3-10.2l-3,10.2h-5.8L138,93.8h6.1l3.3,10.4l3-10.4h5.8l2.9,10.4l3.4-10.4h6.2L162,112.6z
		 M157,111.6h4.3l5.9-16.8h-4l-4.2,12.9l-3.6-12.9h-4.2l-3.7,12.9l-4-12.9h-4l5.9,16.8h4.3l3.7-12.7L157,111.6z"/>
	<path fill="#FFFFFF" d="M170.1,107l5.2-0.7c0.2,0.9,0.7,1.6,1.4,2.1c0.7,0.5,1.6,0.7,2.8,0.7c1.3,0,2.3-0.2,3-0.7
		c0.5-0.3,0.7-0.7,0.7-1.3c0-0.3-0.1-0.6-0.4-0.9s-0.8-0.4-1.7-0.6c-4.2-0.8-6.8-1.6-7.9-2.3c-1.6-1-2.3-2.3-2.3-4
		c0-1.5,0.7-2.8,2-3.9s3.4-1.6,6.2-1.6c2.7,0,4.7,0.4,6,1.2s2.2,2,2.7,3.5l-4.9,0.8c-0.2-0.7-0.6-1.2-1.2-1.6s-1.4-0.6-2.5-0.6
		c-1.4,0-2.4,0.2-2.9,0.5c-0.4,0.3-0.6,0.6-0.6,1c0,0.3,0.2,0.6,0.5,0.9c0.5,0.3,2.1,0.8,4.8,1.3c2.8,0.6,4.7,1.3,5.8,2.1
		c1.1,0.8,1.6,2,1.6,3.5c0,1.6-0.8,3-2.3,4.2c-1.5,1.2-3.7,1.8-6.7,1.8c-2.7,0-4.8-0.5-6.4-1.5C171.6,110,170.6,108.7,170.1,107z"/>
	<path fill="#FFFFFF" d="M179.5,113c-2.8,0-5-0.5-6.6-1.6c-1.7-1-2.8-2.5-3.3-4.3l-0.2-0.6l6.2-0.9l0.1,0.4c0.2,0.8,0.6,1.4,1.2,1.8
		c0.6,0.4,1.5,0.6,2.6,0.6c1.2,0,2.2-0.2,2.7-0.6c0.3-0.2,0.5-0.5,0.5-0.9c0-0.2-0.1-0.4-0.2-0.5c-0.1-0.1-0.4-0.3-1.5-0.5
		c-4.3-0.9-6.9-1.6-8.1-2.4c-1.7-1.1-2.6-2.6-2.6-4.4c0-1.7,0.7-3.1,2.2-4.3c1.4-1.1,3.6-1.7,6.5-1.7c2.8,0,4.8,0.4,6.2,1.3
		c1.4,0.9,2.4,2.1,2.9,3.8l0.2,0.5l-5.9,1l-0.1-0.4c-0.2-0.6-0.5-1-1-1.3c-0.5-0.3-1.3-0.5-2.2-0.5c-1.6,0-2.3,0.2-2.7,0.4
		c-0.3,0.2-0.3,0.4-0.3,0.5c0,0.1,0,0.3,0.3,0.5c0.2,0.2,1.1,0.5,4.7,1.2c2.9,0.6,4.8,1.3,6,2.2c1.2,0.9,1.8,2.2,1.8,3.9
		c0,1.8-0.8,3.3-2.4,4.6C184.9,112.4,182.6,113,179.5,113z M170.8,107.4c0.5,1.3,1.4,2.4,2.7,3.2c1.5,0.9,3.5,1.4,6.1,1.4
		c2.8,0,4.9-0.6,6.4-1.7c1.4-1.1,2.1-2.3,2.1-3.8c0-1.3-0.5-2.4-1.4-3.1c-1-0.8-2.9-1.5-5.6-2c-3.8-0.8-4.7-1.2-5-1.4
		c-0.6-0.4-0.7-0.9-0.7-1.3c0-0.4,0.1-1,0.8-1.4c0.7-0.4,1.7-0.6,3.2-0.6c1.2,0,2.1,0.2,2.8,0.6c0.6,0.4,1,0.8,1.2,1.5l3.9-0.7
		c-0.5-1.2-1.2-2.1-2.3-2.7c-1.2-0.7-3.1-1.1-5.7-1.1c-2.7,0-4.7,0.5-5.9,1.5c-1.2,1-1.8,2.1-1.8,3.5c0,1.5,0.7,2.7,2.1,3.6
		c1.1,0.7,3.7,1.4,7.8,2.2c1,0.2,1.6,0.5,2,0.8c0.4,0.3,0.6,0.8,0.6,1.2c0,0.7-0.3,1.3-0.9,1.7c-0.8,0.5-1.8,0.8-3.3,0.8
		c-1.3,0-2.4-0.3-3.1-0.8c-0.7-0.5-1.1-1.1-1.4-2L170.8,107.4z"/>
</g>
</svg>
