<?xml version="1.0" encoding="utf-8"?>
<!-- Generator: Adobe Illustrator 16.0.0, SVG Export Plug-In . SVG Version: 6.00 Build 0)  -->
<!DOCTYPE svg PUBLIC "-//W3C//DTD SVG 1.1//EN" "http://www.w3.org/Graphics/SVG/1.1/DTD/svg11.dtd">
<svg version="1.1" xmlns="http://www.w3.org/2000/svg" xmlns:xlink="http://www.w3.org/1999/xlink" x="0px" y="0px" width="200px"
	 height="200px" viewBox="0 0 200 200" enable-background="new 0 0 200 200" xml:space="preserve">
<g id="圖層_1">
</g>
<g id="圖層_2">
	<circle opacity="0.8" fill="#998675" cx="100" cy="100" r="100"/>
	<path fill="#736357" d="M155,148.3c0,6.5-5.4,11.7-12,11.7H57c-6.6,0-12-5.2-12-11.7V51.7C45,45.2,50.4,40,57,40h86
		c6.6,0,12,5.2,12,11.7V148.3z"/>
	<rect x="55.7" y="51.6" fill="#534741" width="88.7" height="8.8"/>
	<rect x="55.7" y="68" fill="#534741" width="40.5" height="39"/>
	<rect x="104.5" y="67.9" fill="#534741" width="39.8" height="5.4"/>
	<rect x="62.4" y="110.1" fill="#534741" width="33.1" height="3.5"/>
	<rect x="55.7" y="117.8" fill="#534741" width="39.8" height="3.5"/>
	<rect x="55.7" y="125.4" fill="#534741" width="39.8" height="3.5"/>
	<rect x="55.7" y="133" fill="#534741" width="39.8" height="3.5"/>
	<rect x="55.7" y="140.7" fill="#534741" width="39.8" height="3.5"/>
	<rect x="110.1" y="75.7" fill="#534741" width="34.2" height="3.5"/>
	<rect x="104.5" y="82.7" fill="#534741" width="39.8" height="3.5"/>
	<rect x="104.5" y="89.6" fill="#534741" width="39.8" height="3.5"/>
	<rect x="104.5" y="96.6" fill="#534741" width="39.8" height="3.5"/>
	<rect x="104.5" y="103.5" fill="#534741" width="39.8" height="3.5"/>
	<rect x="104.5" y="110.1" fill="#534741" width="39.8" height="3.5"/>
	<rect x="104.5" y="117" fill="#534741" width="39.8" height="27.2"/>
</g>
</svg>
