<?xml version="1.0" encoding="utf-8"?>
<!-- Generator: Adobe Illustrator 16.0.0, SVG Export Plug-In . SVG Version: 6.00 Build 0)  -->
<!DOCTYPE svg PUBLIC "-//W3C//DTD SVG 1.1//EN" "http://www.w3.org/Graphics/SVG/1.1/DTD/svg11.dtd">
<svg version="1.1" xmlns="http://www.w3.org/2000/svg" xmlns:xlink="http://www.w3.org/1999/xlink" x="0px" y="0px" width="200px"
	 height="200px" viewBox="0 0 200 200" enable-background="new 0 0 200 200" xml:space="preserve">
<g id="圖層_1">
</g>
<g id="圖層_2">
	<circle opacity="0.8" fill="#998675" cx="100" cy="100" r="100"/>
	<path fill="#FFFFFF" d="M102.9,47.5C102.9,47.5,102.9,47.5,102.9,47.5l-1.3-0.9c0,0-0.1-0.1-0.1-0.1l0.2-1.8c0.1-1,0.1-2.6-0.5-2.7
		c-0.1,0-0.1-0.1-0.1-0.1c0-0.1,0-1.7-1.3-1.8c0,0-0.1,0-0.2,0c-0.3,0-0.8,0.1-1,0.5c0,0,0,0.1-0.1,0.1l-0.9,0.4l-0.3,1c0,0,0,0,0,0
		l-1.1,1.5l0.4,0.4c0,0,0,0.1,0,0.1l-0.3,2.1c0,0,0,0,0,0.1c0,0-0.3,0.5-0.7,0.5c-0.2,0-0.5-0.1-0.7-0.4l-0.5-0.4
		c-0.3,0.1-1.3,0.6-1.8,1.5C92,48.5,92,50.2,92,50.2c0,0,0,0,0,0c0,0-0.4,0.9-2.3,1c-0.2,0.1-0.9,0.7-1.7,1.2
		c-0.7,0.5-1.6,0.5-1.9,0.5c-0.1,0-0.1,0-0.1,0c0,0-0.1,0-0.3,0c-0.5,0-1.6,0.1-2.1,0.6c-0.6,0.7-1.5,2.7-0.3,3.9c0,0,0,0.1,0,0.1
		c0,0,0,0.1-0.1,0.1l-0.7,0.5l-1,1.4c0,0-0.1,0-0.1,0.1l-1.4-0.1l-0.7-0.1c0,0,0,0-0.1,0l-0.8-0.7l-0.8,0.8c0,0-0.1,0-0.1,0h-0.7
		c0,0-0.1,0-0.1,0c-0.3-0.3-0.6-0.6-0.8-0.6c-0.3,0-1.7-0.2-1.8-0.2c-0.1,0-0.1-0.1-0.1-0.1v-1l-1,1l0.1,0.8c0,0,0,0.1,0,0.1
		L72.6,60l-0.3,1.3c0,0,0,0,0,0L71.7,62c0,0,0,0-0.1,0l-0.5,0.2l-0.9,0.7c0,0,0,0,0,0s-1.5,0.4-1.8,1.6c-0.3,1.3-1,1.7-1,1.8
		c0,0-0.7,0.6-0.7,1.2c0,0.2,0.1,0.4,0.2,0.6c0,0,0,0.1,0,0.1c0,0-0.1,0.1-0.1,0.1l-2,0.3c-0.1,0.1-0.9,0.7-1,1.2c0,0,0,0,0,0.1
		c0,0-3.6,3.8-4.8,5.2c-1,1.2-2.8,2.7-3.1,2.9c0,0.7,0.1,1.9,0.3,2.2c0.3,0.4-0.1,1.1-0.2,1.1c0,0,0,0-0.1,0L54,82
		c-0.1,0.4-0.5,2.3-0.3,3.1c0.1,0.1,0.3,0.2,0.4,0.4c0.1,0.1,0.2,0.2,0.3,0.3c0.1,0.1,0.3,0.2,0.4,0.3c0.1,0.1,0.2,0.2,0.3,0.2
		c0.2,0.1,0.4,0.2,0.5,0.3c0.1,0,0.2,0.1,0.2,0.1c0.3,0.1,0.5,0.2,0.8,0.3c0.8,0.3,1.7,0.4,2.7,0.4c2,0,3.8-0.6,4.6-1.1
		c1.4-0.9,2.8-1.2,3.9-0.9c1.1,0.3,2.5,1.7,2.7,3c0,0.4,0,0.9,0,1.6c0,1.6-0.1,3.7,0.7,3.9c0.9,0.2,2.6,0.2,3.3,0.2
		c0.2,0,0.4,0,0.4,0c0,0,0,0,0,0c0,0,0,0,0,0l0.6,0.2l0.9-0.4c0,0,1.4-0.8,2.1-0.9c0.6-0.1,0.9-0.2,1.1-0.2l0.2-1.3c0,0,0-0.1,0-0.1
		l1.2-1.2l0.3-1.4c0,0,0-0.1,0.1-0.1c0,0,0.9-0.4,0.6-1.1c0-0.1,0-0.1,0.1-0.2l1.2-0.5c0-0.3,0-1.4-0.8-2.1c0,0,0,0,0-0.1
		c-0.1-0.3-0.2-1,0.4-1.4c0.1-0.1,0.1-0.1,0.2-0.2c0.3-0.4,0.5-1.2,0.5-1.5c0,0,0-0.1,0-0.1c0-0.2,0.1-0.5,0.6-0.5
		c0.1,0,0.3,0,0.5,0.1c0.1,0,0.3,0,0.5-0.2c0.1-0.1,0.2-0.3,0.1-0.6c0,0,0-0.1,0-0.1l0.6-0.7v-3.1c-0.1-0.1-0.4-0.2-0.5-0.5
		c0-0.2,0-0.3,0.2-0.5c0.6-0.5,1.8-1.5,1.8-1.5c0,0,0.1,0,0.1,0h1.3l1.4-0.8c0,0,0,0,0.1,0h0.6l0.3-0.6c0,0,0.1-0.1,0.1-0.1h0.8
		c0,0,0,0,0,0c0,0,0.2,0.1,0.5,0.1c0.6,0,0.9-0.2,1.1-0.7v-0.7c0,0,0-0.1,0.1-0.1l0.5-0.3l0.8-1.3v-0.6l-0.3-0.3c0,0,0-0.1,0-0.1
		l0.1-0.7c0,0,0-0.1,0.1-0.1l0.5-0.4c0.1-0.2,0.8-1.7,1.7-2.7c0.6-0.7,1.5-1,2-1.2c0.4-0.1,0.6-0.2,0.7-0.2v-1.3l0.2-1.8
		c0,0,0-0.1,0.1-0.1l0.4-0.2l-0.5-1.4c0,0-0.5-1-0.2-2c0.2-0.9,0.7-1.3,1.7-1.4l1-2.2c0.1-0.4,0.4-1.7,0-2.1c0,0-0.2-0.2-0.1-0.5
		c0-0.4,0.4-0.9,1-1.3c0.1-0.1,0.3-0.2,0.5-0.4c0,0,0.1-0.1,0.1-0.1c0.1-0.1,0.3-0.2,0.4-0.3l0-0.5H102.9z"/>
	<path fill="#FFFFFF" d="M84.8,100.8C84.8,100.8,84.9,100.8,84.8,100.8l0.9,0v-1.3c0,0,0-0.1,0.1-0.1l4.1-3c0,0,0,0,0.1,0l1.4-0.2
		c0,0,0.1,0,0.1,0l1.5,0.8l1.4-0.1l0.6-0.4c0,0,0,0,0.1,0l0.8,0c0,0,0,0,0.1,0l0.1,0.1l0,0l0.1,0.1l1.4-1.4l0.8-1.3
		c0,0,0.1-0.1,0.1-0.1l4.1-0.7l0.2-0.9c0,0,0-0.1,0-0.1l0.5-0.4v-0.7c0-0.1,0-0.1,0.1-0.1l1.1-0.3l0.7-0.6l0.8-0.7c0,0,0.1,0,0.1,0
		h0.8c0,0,0,0,0.1,0l1,0.5l0.7-0.5c0,0,0.1,0,0.1,0l0.9,0.3l0.7-0.2l0.8-1.1l0.4-1.3c0,0,0-0.1,0.1-0.1l1.4-0.8l1.2-0.5
		c0,0,0,0,0.1,0l1.8,0.2c0.2-0.1,0.8-0.8,1.2-2c0.2-0.7,0.5-0.9,0.7-1.1c0.3-0.3,0.6-0.5,0.7-1.8c0,0,0,0,0,0l0.4-0.8
		c0,0,0.1-0.1,0.1-0.1h0.8l1.5-1.4l0-0.7h-1.5c0,0-0.1,0-0.1,0s0-0.1,0-0.1c0,0,0.1-3-2.2-4.2c0,0,0,0,0,0l-1.4-1.6c0,0,0,0,0-0.1
		c0,0-0.1-1.4-0.6-1.9c-0.5-0.5-0.5-1.3-0.5-1.5l-1.7-0.8c-0.1,0-0.1-0.1-0.1-0.1c0-0.1,0.1-0.1,0.1-0.1c0,0,0.8-0.1,1-1.7
		c0.3-1-0.5-1.5-0.6-1.5c0,0-0.1-0.1-0.1-0.1c0,0-0.5-3.4-1.9-5c0,0,0,0,0,0c0,0-1.4-4-2.4-5.5c0,0,0-0.1,0-0.1l0.8-1.2l-0.4-1.1
		c0,0,0-0.1,0-0.1l0.7-1c0,0,0.5-0.6,0.1-1.3l-0.4-0.5c0,0,0-0.1,0-0.1l0.5-0.8l-0.1-0.3h-1.5l-0.5,0.7c0,0-0.1,0-0.1,0
		c0,0-0.1,0-0.1,0l-0.6-0.7l-0.5,0.3c0,0,0,0,0,0l-0.8,0.2l-0.5,0.6c0,0-0.1,0.1-0.1,0l-0.6-0.1c-0.1,0-0.1,0-0.1-0.1
		c-0.1,0.1-0.2,0.1-0.2,0.2c-0.1,0-0.1,0.1-0.2,0.1c-0.2,0.1-0.3,0.2-0.4,0.3c-0.7,0.5-0.9,0.9-0.9,1.1c0,0.2,0.1,0.3,0.1,0.4
		c0.6,0.6,0,2.3,0,2.4l-1.1,2.3c0,0-0.1,0.1-0.1,0.1c-1,0.1-1.4,0.3-1.6,1.2c-0.2,0.9,0.2,1.9,0.2,1.9l0.5,1.5c0,0.1,0,0.1-0.1,0.1
		l-0.4,0.3l-0.2,1.7l0,1.4c0,0,0,0.1,0,0.1c0,0-0.1,0.1-0.8,0.3c-0.5,0.1-1.3,0.5-1.9,1.1c-1,1.1-1.7,2.6-1.7,2.6c0,0,0,0,0,0.1
		l-0.5,0.3l-0.1,0.6l0.3,0.3c0,0,0,0,0,0.1v0.7c0,0,0,0,0,0.1l-0.9,1.3c0,0,0,0,0,0l-0.4,0.3v0.6c0,0,0,0,0,0
		c-0.2,0.6-0.7,0.9-1.4,0.9c-0.3,0-0.5-0.1-0.6-0.1h-0.7l-0.3,0.6c0,0-0.1,0.1-0.1,0.1h-0.7l-1.4,0.8c0,0,0,0-0.1,0h-1.3
		c-0.2,0.2-1.2,1-1.7,1.5c-0.1,0.1-0.2,0.2-0.2,0.3c0,0,0,0.1,0.1,0.1c0,0,0,0,0.1,0c0,0,0,0,0,0c0,0,0,0,0.1,0c0,0,0,0,0.1,0
		c0,0,0.1,0,0.1,0c0,0,0.1,0.1,0.1,0.1v3.3c0,0,0,0.1,0,0.1l-0.6,0.7c0,0.3-0.1,0.5-0.2,0.7c-0.2,0.2-0.6,0.3-0.7,0.3c0,0,0,0-0.1,0
		c-0.2-0.1-0.3-0.1-0.4-0.1c-0.3,0-0.3,0.2-0.3,0.3c0,0.1-0.2,1.4-0.8,1.9c-0.5,0.3-0.3,0.9-0.3,1.1c0.9,0.9,0.8,2.3,0.8,2.4
		c0,0,0,0.1-0.1,0.1l-1.2,0.5c0.2,0.6-0.4,1.1-0.7,1.3l-0.3,1.4c0,0,0,0,0,0.1l-1.2,1.2l-0.2,1.3c0,0,0,0.1-0.1,0.1
		c0,0-0.4,0.1-1.2,0.3c-0.7,0.1-2.1,0.9-2.1,0.9l-0.9,0.5c0,0,0,0-0.1,0c0,0,0,0,0,0l-0.6-0.2c-0.1,0-0.2,0-0.4,0
		c-0.9,0-2.4,0-3.4-0.2c-1-0.2-1-2.4-0.9-4.1c0-0.6,0-1.2,0-1.5c-0.1-1.3-1.4-2.5-2.5-2.8c-1-0.3-2.3,0.1-3.7,0.9
		c-0.9,0.5-2.7,1.1-4.8,1.1c-1,0-1.9-0.1-2.7-0.4c-0.3-0.1-0.5-0.2-0.8-0.3c-0.1,0-0.2-0.1-0.3-0.1c-0.2-0.1-0.3-0.2-0.5-0.3
		c-0.1-0.1-0.2-0.1-0.3-0.2c-0.2-0.1-0.3-0.2-0.5-0.3c-0.1-0.1-0.2-0.2-0.3-0.3c-0.1-0.1-0.2-0.1-0.3-0.2l-0.2,1.4c0,0,0,0,0,0.1
		l-1,1.2l0.3,1.2c0.1,0.1,0.1,0.2,0.2,0.3c0.5,1.1,1.3,2.6,4.3,3.3c1.8,0.4,2.8,0.5,3.8,0.7c0.9,0.1,1.7,0.2,2.9,0.5
		c2.5,0.6,4,0.9,5.7,2.7c1.2,1.3,2.9,4.1,4,6c0.1,0,0.2,0.1,0.3,0.1c0,0,0.1,0,0.1,0.1c0.1,0,0.2,0,0.3,0.1c0,0,0.1,0,0.1,0
		c0.1,0,0.2,0,0.3,0c0,0,0.1,0,0.2,0c0.2,0,0.3,0,0.5-0.1c1.9-0.4,2.8-0.4,3-0.4l1-0.7c0,0,0.1,0,0.2,0l1,0.9l1.9,0.3L84.8,100.8z"
		/>
	<path fill="#FFFFFF" d="M76.4,117.4l1-0.6c0,0,0.1,0,0.1,0c0,0,0,0,0.1,0c0.4,0.1,1.7,0.3,2.5,0.3c0,0,0.1,0,0.1,0c0,0,0.1,0,0.1,0
		c0,0,0.1,0,0.1,0c0,0,0.1,0,0.1,0c0,0,0-0.1,0.1-0.1c0-0.1,0.1-0.1,0.1-0.2c0-0.1,0.1-0.1,0.1-0.2c0,0,0-0.1,0.1-0.1
		c0-0.1,0-0.1,0.1-0.2c0,0,0-0.1,0-0.1c0-0.1,0-0.1,0.1-0.2c0,0,0-0.1,0-0.1c0-0.1,0-0.1,0-0.2c0,0,0-0.1,0-0.1c0-0.1,0-0.1,0-0.2
		c0,0,0,0,0-0.1c0-0.1,0-0.1,0-0.2c0,0,0,0,0-0.1c0-0.1,0-0.1,0-0.2c0.1-0.6,0.2-2.2-0.2-3.3c-0.4-1.1-0.4-1.7-0.4-2.2
		c0-0.6,0.3-1.3,0.4-1.5l0.3-2.8c0,0,0,0,0-0.1c0.1-0.1,0.2-0.3,0.2-0.4c0,0,0.1-0.1,0.1-0.1c0.1-0.1,0.1-0.2,0.2-0.3
		c0-0.1,0.1-0.1,0.1-0.2c0.1-0.1,0.1-0.2,0.2-0.3c0,0,0-0.1,0.1-0.1c0-0.1,0.1-0.1,0.1-0.2l-1.6-0.3c0,0,0,0-0.1,0l-1-0.8l-1,0.7
		c0,0,0,0-0.1,0c0,0-0.9,0-3,0.4c-0.2,0-0.4,0-0.5,0.1c0,0,0,0-0.1,0c0,0-0.1,0-0.1,0c-0.2,0-0.4,0-0.6-0.1c0,0,0,0-0.1,0
		c-0.1,0-0.2-0.1-0.4-0.1c0.3,0.6,0.5,1,0.6,1.3c0.6,1.5,0.8,3.3,0.4,5.3c-0.2,1-0.5,2.1-0.7,3c-0.3,1-0.5,1.8-0.6,2.4
		c0,0.3-0.1,0.7-0.2,1.1L76.4,117.4L76.4,117.4L76.4,117.4z"/>
	<path fill="#FFFFFF" d="M81.2,117.1C81.2,117.1,81.2,117.1,81.2,117.1c0.1,0,0.2,0,0.4,0.1c0,0,0,0,0.1,0c0.1,0,0.3,0,0.4,0.1
		c0,0,0,0,0.1,0c0.2,0,0.3,0.1,0.5,0.1c0,0,0,0,0,0c0.2,0,0.3,0.1,0.5,0.1c0,0,0,0,0.1,0c0.2,0,0.3,0.1,0.5,0.1c0,0,0.1,0,0.1,0
		c0.1,0,0.3,0.1,0.4,0.1c0,0,0,0,0.1,0c0.1,0,0.3,0.1,0.4,0.1c0.5,0.2,1.3,0.5,2.4,0.8c1.3,0.3,2.7,0.5,4,0.5c0.2,0,0.4,0,0.6,0
		c0-0.2,0-0.6,0.1-1c0,0,0,0,0,0c0-0.1,0-0.2,0-0.3c0,0,0-0.1,0-0.1c0-0.1,0-0.1,0-0.2s0-0.1,0-0.2c0-0.1,0-0.1,0-0.2
		c0-0.1,0-0.1,0-0.2c0-0.1,0-0.1,0-0.2c0-0.1,0-0.1,0-0.2c0-0.1,0-0.1,0-0.2c0-0.1,0-0.1,0-0.2c0-0.1,0-0.1,0-0.2c0-0.1,0-0.2,0-0.2
		c0,0,0-0.1,0-0.1c0-0.1,0-0.1,0-0.2c0,0,0-0.1,0-0.1c0-0.1,0-0.1,0-0.2c0,0,0-0.1,0-0.1c0-0.1,0-0.1,0-0.2c0,0,0-0.1,0-0.1
		c0,0,0-0.1,0-0.1c0,0,0-0.1,0-0.1c0-0.1,0-0.1,0-0.2c0-0.8,0-5.2,0-5.7c-0.1-0.1-0.7-0.7-2.5-0.8c0,0-0.1,0-0.1-0.1
		c0,0-0.3-0.6,0-1.4c0-0.1,0.1-0.1,0.1-0.1c0,0,0,0,0,0l5.2,0.1l1-0.8v-1.5c0-0.1,0.1-0.1,0.1-0.1h1.2c0,0,0,0,0.1,0l3,1.5l0.9,0.1
		c0,0,0.1,0,0.1-0.1c0,0,0,0,0,0c0.1,0,0.1-0.1,0.2-0.1c0,0,0.1,0,0.1,0c0.1,0,0.1-0.1,0.2-0.1c0,0,0.1,0,0.1-0.1
		c0.1,0,0.1-0.1,0.2-0.1c0,0,0.1-0.1,0.2-0.1c0.1,0,0.2-0.1,0.2-0.1c0.1,0,0.1-0.1,0.2-0.1c0.1,0,0.2-0.1,0.2-0.1
		c0.1,0,0.1-0.1,0.2-0.1c0.1,0,0.1-0.1,0.2-0.1c0.1-0.1,0.2-0.1,0.2-0.2c0,0,0.1-0.1,0.1-0.1c-0.1-0.1-0.3-0.2-0.4-0.2
		c-0.1,0-0.2-0.1-0.2-0.1c-0.1,0-0.1-0.1-0.2-0.1c-0.1-0.1-0.2-0.1-0.4-0.1c0,0-0.1,0-0.1-0.1c-0.2-0.1-0.3-0.1-0.5-0.2
		c-1-0.3-1.5-1.5-1.7-2.3c-0.1-0.3-0.1-0.5-0.1-0.6h-1.4c0,0-0.1,0-0.1-0.1s0-0.1,0-0.1c0,0,0.3-1-0.7-1.6c-0.1-0.1-0.2-0.1-0.3-0.2
		c-0.1-0.1-0.2-0.2-0.3-0.3c-0.1-0.1-0.1-0.1-0.2-0.2c0,0-0.1-0.1-0.1-0.1c-0.1-0.1-0.1-0.1-0.2-0.2c-0.1-0.1-0.1-0.1-0.2-0.2
		c-0.1-0.1-0.1-0.1-0.2-0.2C96,97,95.9,97,95.8,96.9l-0.1-0.1l-0.8,0l-0.6,0.4c0,0,0,0-0.1,0l-1.5,0.1c0,0,0,0-0.1,0l-1.5-0.8
		l-1.4,0.2l-4,2.9v1.4c0,0.1-0.1,0.1-0.1,0.1H85l-2.1,2.4c0,0-0.1,0-0.1,0l-0.2,0c0,0-0.1,0.1-0.1,0.2c0,0.1-0.1,0.1-0.1,0.2
		c0,0.1-0.1,0.1-0.1,0.2c0,0.1-0.1,0.2-0.1,0.2c0,0.1-0.1,0.1-0.1,0.2c0,0.1-0.1,0.2-0.1,0.2c-0.1,0.1-0.2,0.3-0.2,0.4l-0.3,2.8
		c0,0,0,0,0,0c0,0-0.4,0.8-0.4,1.4c0,0.5,0,1.1,0.4,2.1c0.4,1.1,0.2,2.8,0.2,3.4c0,0,0,0.1,0,0.2c0,0,0,0,0,0.1c0,0,0,0.1,0,0.2
		c0,0,0,0.1,0,0.1c0,0.1,0,0.1,0,0.2c0,0,0,0.1,0,0.1c0,0.1,0,0.1,0,0.2c0,0,0,0.1,0,0.1c0,0.1,0,0.1,0,0.2c0,0,0,0.1,0,0.1
		c0,0.1,0,0.1-0.1,0.2c0,0.1,0,0.1-0.1,0.2c0,0.1-0.1,0.1-0.1,0.2c0,0,0,0.1-0.1,0.1c0,0,0,0.1,0,0.1
		C81,117.1,81.1,117.1,81.2,117.1z"/>
	<path fill="#FFFFFF" d="M103.2,104.5c-0.1,0.1-0.2,0.1-0.3,0.2c-0.1,0-0.1,0.1-0.2,0.1c-0.1,0.1-0.2,0.1-0.3,0.2
		c-0.1,0-0.1,0.1-0.2,0.1c-0.1,0-0.2,0.1-0.2,0.1c-0.1,0-0.1,0.1-0.2,0.1c-0.1,0-0.1,0.1-0.2,0.1c-0.1,0-0.1,0.1-0.2,0.1
		c0,0-0.1,0-0.1,0c-0.3,0.1-0.5,0.2-0.5,0.2c0,0,0,0-0.1,0l-0.9-0.1c0,0,0,0,0,0l-3-1.5h-1v1.4c0,0,0,0.1,0,0.1l-1.1,0.9
		c0,0-0.1,0-0.1,0l-5.1-0.1c-0.2,0.6-0.1,0.9,0,1.1c2.1,0.1,2.6,0.9,2.7,0.9c0,0,0,0,0,0.1c0,0,0,5,0,5.7c0,0.1,0,0.2,0,0.3
		c0,0,0,0,0,0c0,0.1,0,0.3,0,0.5c0,0,0,0,0,0c0,0.2,0,0.4,0,0.6c0,0,0,0,0,0c0,0.2,0,0.5,0,0.7c0,0,0,0,0,0c0,0.5-0.1,0.9-0.1,1.4
		c0,0,0,0.1,0,0.1c0,0.2,0,0.4,0,0.5c0,0,0,0.1,0,0.1c0,0.1,0,0.3,0,0.4c0,0,0,0.1,0,0.1c0.1,0,0.1,0,0.2,0c0,0,0.1,0,0.1,0
		c0.1,0,0.3,0,0.4,0c0,0,0.1,0,0.1,0c0.1,0,0.3,0,0.4,0c0,0,0.1,0,0.1,0c0.1,0,0.3,0,0.4,0c0.1,0,0.1,0,0.2,0c0.1,0,0.2,0,0.4,0
		c0.1,0,0.1,0,0.2,0c0.1,0,0.3,0,0.4,0c0,0,0.1,0,0.1,0c0.1,0,0.2,0,0.3,0c0.2,0,0.4,0,0.5,0c0.1,0,0.1,0,0.2,0c0.1,0,0.2,0,0.3,0
		c0.1,0,0.1,0,0.2,0c0.1,0,0.2,0,0.3,0c0,0,0.1,0,0.1,0c0.1,0,0.2,0,0.3,0c0,0,0.1,0,0.1,0c0.1,0,0.1,0,0.2,0c0.1,0,0.1,0,0.2,0
		c0.1,0,0.1,0,0.2,0c0,0,0.1,0,0.1,0c0.1,0,0.3,0,0.4,0c0.1,0,0.1,0,0.2,0c0,0,0,0,0,0l0,0c0.1,0,0.3,0,0.3,0
		c0.3-0.2,2.7-1.7,4.5-2.1c0.5-0.1,1.1-0.2,1.9-0.2l0,0l0,0c0.2,0,0.4,0,0.6,0c0.1,0,0.1,0,0.2,0c0.1,0,0.3,0,0.4,0
		c0.1,0,0.1,0,0.2,0c0.1,0,0.2,0,0.4,0c0.1,0,0.1,0,0.2,0c0.1,0,0.2,0,0.4,0c0,0,0.1,0,0.1,0c0.1,0,0.3,0,0.4,0c0.1,0,0.1,0,0.2,0
		c0,0,0.1,0,0.1,0c0.1,0,0.2,0,0.2,0l-0.2-1.1c0,0,0-0.1,0-0.1l0.6-0.6c-0.1,0-0.2,0-0.3,0c-1.1,0-2.1,0.5-2.5,0.7
		c-0.1,0-0.1,0.1-0.1,0.1l0,0c0,0,0,0-0.1,0c0,0,0,0,0,0l-0.9-0.4c0,0-0.1-0.1-0.1-0.1c0,0,0-3.3-0.6-4.4c-0.7-1.1-0.2-2-0.2-2
		c0.7-1.1,0.9-2.7,0.7-3.9c0-0.1-0.1-0.3-0.2-0.4c0,0,0-0.1-0.1-0.1c-0.1-0.1-0.1-0.2-0.2-0.3c0,0-0.1-0.1-0.1-0.1
		c-0.1-0.1-0.1-0.2-0.2-0.2c0,0-0.1-0.1-0.1-0.1c0,0-0.1-0.1-0.1-0.1c-0.1,0.1-0.2,0.1-0.2,0.2C103.3,104.4,103.2,104.4,103.2,104.5
		z"/>
	<path fill="#FFFFFF" d="M96.3,97c0.2,0.2,0.3,0.4,0.5,0.6c0,0,0,0,0.1,0.1c0.2,0.2,0.3,0.3,0.5,0.4c0.1,0.1,0.2,0.1,0.3,0.2
		c0.9,0.6,0.9,1.4,0.8,1.7h1.4c0.1,0,0.1,0,0.1,0.1c0,0,0.4,2.3,1.7,2.8c0.2,0.1,0.4,0.1,0.6,0.2c0.1,0,0.1,0,0.2,0.1
		c0.1,0,0.2,0.1,0.4,0.2c0.1,0,0.1,0.1,0.2,0.1c0.1,0,0.2,0.1,0.2,0.1c0.1,0.1,0.2,0.1,0.3,0.2c0.1,0,0.1,0.1,0.2,0.1
		c0,0,0.1,0,0.1,0c0.1,0,0.1,0.1,0.2,0.1c0.1,0,0.1,0.1,0.2,0.1c0.1,0.1,0.2,0.2,0.2,0.2c0,0,0.1,0.1,0.1,0.1
		c0.1,0.1,0.1,0.2,0.2,0.3c0,0,0,0.1,0.1,0.1c0.1,0.1,0.1,0.3,0.2,0.5c0.3,1.3,0,2.9-0.7,4.1c0,0-0.5,0.8,0.2,1.8
		c0.6,1,0.7,3.9,0.7,4.4l0.8,0.3c0.3-0.1,1.4-0.8,2.7-0.8c0.2,0,0.4,0,0.6,0c0,0,0,0,0,0c0,0,2.8-0.8,4.4-2.5c0,0,0.4-0.6,1.2-0.8
		c0.1,0,0.2,0,0.4-0.1c0.1,0,0.2,0,0.3,0c0.3,0,0.7,0.1,1.2,0.1c0.6,0.1,1.4,0.2,2.1,0.2c0.2,0,0.5,0,0.7,0c0.9,0,1.5-0.1,2-0.4
		c1.5-0.9,1.9-2,1.9-2c0,0,0.1-0.1,0.1-0.1l2-0.1c0.3-0.1,0.8-0.5,0.9-0.9c0-0.1,0-0.2-0.1-0.3c0,0,0-0.1,0-0.1c0,0,0.1-0.1,0.1-0.1
		c0,0,1.4-0.3,1.4-1.2c0.1-1-0.2-1.3-0.2-1.3c0,0,0-0.1,0-0.1c0-0.3,0.2-0.9,0.9-0.9c0.1,0,0.1,0,0.2,0l0.4-1.9c0,0,0.2-1.4,1.1-1.6
		c0.7-0.1,0.9-1.3,0.9-1.3c0,0,0.6-1.9-0.5-2.7c0,0,0-0.1-0.1-0.1c0-0.3-0.2-1.2-0.6-1.4c0,0-0.1-0.1-0.1-0.1
		c0.1-0.3,0.2-1.2-0.1-1.5c-0.1-0.1-0.3-0.1-0.5-0.1c-0.4,0-0.8,0-1.5-0.6c-1-1-1.6-1.3-1.6-1.3c0,0-0.1-0.1-0.1-0.1
		c0-0.1-0.2-1.4-1.5-1.4c-0.3,0-0.6,0.1-0.9,0.2c0,0-0.1,0-0.1,0c-0.2-0.1-1.6-0.6-1.7-1.4l-1.7-0.5c0,0-0.5-0.1-1.1-0.1
		c-0.3,0-0.6,0-0.8,0.1c-0.1,0-0.1,0-0.1-0.1c0,0-0.4-0.6-1-0.6c0,0-0.1,0-0.1,0c0,0,0-0.1,0-0.1c0,0,0.2-1.4-0.6-1.8l-1.8-0.2
		l-1.1,0.4l-1.3,0.8l-0.4,1.3c0,0,0,0,0,0l-0.8,1.2c0,0,0,0-0.1,0.1l-0.8,0.2c0,0,0,0-0.1,0l-0.8-0.3l-0.7,0.5c0,0-0.1,0-0.1,0
		l-1.1-0.5H106l-0.7,0.6l-0.7,0.6c0,0,0,0-0.1,0l-1,0.2v0.7c0,0,0,0.1-0.1,0.1l-0.5,0.4l-0.2,0.9c0,0.1-0.1,0.1-0.1,0.1l-4.1,0.7
		l-0.8,1.3L96.3,97C96.2,97,96.3,97,96.3,97z"/>
	<path fill="#FFFFFF" d="M104.8,134.7l-1.7,2.2c0,0-0.1,0-0.1,0l-0.9,0.1l-1.6,0.1c0,0,0,0,0,0c0,0-0.1,0-0.1,0l-0.9-1l-1.6-1.3
		l-1.1,0.7c0,0,0,0,0,0l-1.2,0.3c0,0,0,0-0.1,0l-1.1-0.3l-0.9,0.3v0.6c0,0,0,0.1-0.1,0.1c0,0-0.1,0-0.1,0l-1-0.4l-0.5,0.4
		c0,0,0,0-0.1,0l-1.3,0.2l-1.4,0.1c-0.1,0-0.1,0-0.1-0.1l-0.2-1.1l-2.4,1l-0.2,0.4l0,0c0.6,1.2,1.2,2.4,1,2.9c0,0.1-0.1,0.2-0.3,0.3
		c-0.5,0.2-1.4,0.8-1.1,1.6c0.2,0.8,0.6,2.2-0.3,3.2c-0.3,0.3-0.5,0.5-0.8,0.7c-0.4,0.4-1.1,1-1,1.1c0,0,0,0,0.1,0
		c0.4,0,1.6-0.6,2.2-1.3c0.4-0.4,0.8-1,1.1-1.5c0.6-0.8,0.7-1.1,0.9-1.1c0.2,0,0.4,0.2,0.6,0.5c0.2,0.3,0.2,0.7,0.1,0.9
		c-0.2,0.4-0.3,1.1,0.1,1.5c0.4,0.4,2.2,0.6,3.1,0.5c0,0,0,0,0,0c0.1,0,0.2,0,0.2,0.1c0.1,0.2,0.1,0.5-0.1,0.9
		c-0.3,0.6,0.2,0.9,0.7,1.1l0.1,0c0.2,0.1,0.6,0.3,1,0.3c0.7,0,1.1-0.4,1.3-1.3c0-0.1,0-0.8,0.4-0.8c0.1,0,0.2,0,0.3,0.1
		c0.6,0.4,0.5,1.1,0.5,1.1c0,0-0.1,1,0,2.4c0.1,1.4,0.4,2.5,1.4,3.2c0.6,0.4,0.7,1,0.8,1.5c0.1,0.4,0.2,0.8,0.5,1.2
		c0.2,0.2,0.3,0.5,0.5,0.7c0.3,0.5,0.5,0.9,1.7,1.1c0.7,0.1,1.5,0.2,2.4,0.2c0.8,0,1.5-0.1,1.9-0.2c0.3-0.1,0.3-0.3,0.4-0.6
		c0.1-0.3,0.2-0.7,0.7-0.7c0.7,0,1.4,0.1,1.4,0.1c0,0,0.1,0,0.1,0c0,0,0.7,0.7,2.2,0.8c0,0,0.1,0,0.1,0.1c0,0,0.6,0.9,1.6,0.9
		c0.4,0,0.9-0.1,1.3-0.4c0,0,0.3-0.2,0.7-0.2c0.3,0,0.5,0.1,0.7,0.3c0.1,0.1,0.2,0.2,0.3,0.4c0.4,0.6,0.9,1.3,1.9,1.3
		c0.1,0,0.3,0,0.4,0l1.8-0.4v-0.6c0-0.1,0-0.1,0.1-0.1l0.8-0.2l1.3-0.1c0.1-0.1,0.7-0.7,1.5-1.1c0.9-0.5,1.8-0.6,2.1-0.6
		c0.1-0.1,0.3-0.3,0.7-0.3c0.1,0,0.2,0,0.3,0c0.1,0,0.2,0,0.3,0c0.2,0,0.3-0.1,0.3-0.1l-0.3-1.2c-0.3-0.2-2.6-1.9-3.4-2.1
		c-0.5-0.1-1-0.1-1.6,0c-0.3,0-0.6,0.1-0.9,0.1c-0.6,0-1.5-0.7-2.2-1.2c-0.2-0.1-0.3-0.2-0.4-0.3c-0.2-0.1-0.3-0.3-0.3-0.4
		c-0.1-0.4,0.2-0.8,0.5-1.2v-1.5c-0.1-0.2-0.5-1.2-0.3-1.6c0.1-0.1,0.1-0.2,0.3-0.2c0.3-0.1,0.7-0.4,0.7-0.9c0-0.3-0.2-0.6-0.6-0.8
		c-1.4-0.6-1-2.2-1-2.2c0,0,0-0.1,0.1-0.1l0.6-0.3l0.1-0.7c0,0,0-0.1,0-0.1l0.5-0.6c-0.1-0.3-0.5-1.9-1.3-2.5h-1
		c-0.1,0-0.1-0.1-0.1-0.1l-0.1-2c0,0,0-0.1,0-0.1c0,0,0.6-0.9,0.8-2.2l-0.9-0.6l-1.4,0.4l-2.8,0.7l-2.8,0.3c0,0,0,0,0,0
		c0,0-0.1,0-0.1,0l-1-1l-0.8,0.3L104.8,134.7z"/>
	<path fill="#FFFFFF" d="M72,119.3c-0.1,0.1-0.3,0.2-0.4,0.3c-0.6,0.5-1.1,0.9-1.8,0.9c-0.2,0-0.3,0-0.5-0.1
		c-0.2-0.1-0.4-0.1-0.6-0.2c-0.3-0.1-0.6-0.2-0.9-0.2c-0.2,0-0.4,0-0.5,0.4c-0.3,0.8-0.7,1.4-1.4,1.4c-0.4,0-0.9,0.2-1.2,0.6
		c-0.3,0.3-0.4,0.7-0.3,1.2c0.2,1.3,1.1,3,1.6,3.9c0.5,1,0.9,2.9,0.2,3.7c-0.7,0.8-1.9,1.1-2.1,1.2c-0.1,0.1-0.3,0.3-0.3,0.5
		c0,0.1,0,0.2,0.1,0.3c0.1,0.1,0.2,0.2,0.2,0.4c0.2,0.4,0.4,0.7,1.1,0.7c1,0,1.7,0.2,2.4,1.2c0.4,0.6,1.2,1,2,1
		c0.4,0,0.8-0.1,1.1-0.3c1.1-0.7,2.9-2.8,3.6-3.8c0.5-0.7,1.5-1.9,3-2v-0.9c-0.3-0.1-1.7-0.8-2.3-1.5c-0.2-0.3-0.4-0.4-0.5-0.6
		c-0.3-0.3-0.6-0.6-0.6-1.2c-0.1-0.8,0.3-1.6,0.9-2.5c0.5-0.8,1-2.6,1-3.4c0-0.6,0.2-1.1,0.3-1.5c0.1-0.1,0.1-0.3,0.2-0.4
		c0-0.1,0-0.2,0.1-0.3c0,0,0-0.1,0-0.1c0-0.1,0-0.2,0-0.3l-2.7-0.9C73.3,117.4,72.8,118.7,72,119.3z"/>
	<path fill="#FFFFFF" d="M88.7,135.2c0,0,0-0.1,0-0.1c0-0.1-0.1-0.1-0.1-0.2c0,0,0-0.1,0-0.1c0-0.1-0.1-0.2-0.1-0.2c0,0,0,0,0-0.1
		c-0.1-0.1-0.1-0.2-0.2-0.3c0,0,0,0,0-0.1c-0.1-0.1-0.2-0.2-0.2-0.3c0,0,0,0,0,0c-0.1-0.1-0.2-0.2-0.3-0.3c0,0,0,0,0,0
		c-0.1-0.1-0.2-0.2-0.3-0.3c0,0,0,0,0,0c-0.1-0.1-0.2-0.2-0.3-0.3c0,0,0,0,0,0c-0.1-0.1-0.2-0.2-0.3-0.3c0,0,0,0-0.1-0.1
		c-0.1-0.1-0.2-0.2-0.3-0.3c0,0,0,0-0.1-0.1c-0.1-0.1-0.2-0.2-0.3-0.3c0,0-0.1-0.1-0.1-0.1c-0.1-0.1-0.2-0.2-0.3-0.2
		c0,0-0.1-0.1-0.1-0.1c-0.1-0.1-0.1-0.1-0.2-0.2c-0.1,0-0.1-0.1-0.2-0.1c-0.1,0-0.1-0.1-0.2-0.1c-0.1-0.1-0.1-0.1-0.2-0.2
		c0,0-0.1-0.1-0.1-0.1c-0.2-0.2-0.3-0.3-0.5-0.4c-0.2-0.2-0.4-0.4-0.6-0.5c-0.8-0.8-1.7-2.7-1.7-2.8c0,0,0-0.1,0-0.1l0.8-2.5
		c0-0.1,0.1-0.1,0.1-0.1l4.1,0.4v-5.7c-0.1,0-0.2-0.1-0.3-0.1c-0.1,0-0.3-0.1-0.4-0.1c-0.1,0-0.3-0.1-0.4-0.1
		c-0.1,0-0.2-0.1-0.3-0.1c-0.2-0.1-0.3-0.1-0.5-0.2c0,0-0.1,0-0.1,0c-0.2-0.1-0.3-0.1-0.4-0.2c-0.1-0.1-0.3-0.1-0.4-0.2
		c-0.1,0-0.2,0-0.3-0.1c-0.1,0-0.2-0.1-0.3-0.1c-0.1,0-0.2,0-0.3-0.1c-0.1,0-0.2,0-0.3-0.1c-0.1,0-0.2,0-0.3-0.1
		c-0.1,0-0.2,0-0.3-0.1c-0.1,0-0.1,0-0.2,0c-0.1,0-0.2,0-0.4-0.1c0,0-0.1,0-0.1,0c-0.1,0-0.3,0-0.4-0.1c0,0,0,0,0,0
		c-0.3,0-0.4-0.1-0.5-0.1c-0.1,0-0.3,0.1-0.5,0.1c-0.9,0-2.3-0.3-2.6-0.3l-1.1,0.6c0,0,0,0-0.1,0c0,0,0,0,0,0c0,0,0,0,0,0
		c0,0.1,0,0.2,0,0.2c0,0,0,0.1,0,0.1c0,0.1,0,0.2-0.1,0.3c0,0.1-0.1,0.3-0.2,0.4c-0.2,0.4-0.3,0.8-0.3,1.4c0,0.9-0.5,2.8-1,3.6
		c-0.5,0.9-0.9,1.6-0.8,2.3c0,0.5,0.2,0.7,0.5,1c0.2,0.2,0.3,0.4,0.5,0.6c0.6,0.8,2.3,1.4,2.3,1.4c0,0,0.1,0.1,0.1,0.1v1
		c0.3,0,0.6,0.1,0.9,0.2c0,0,1.3,0.2,2.6,1.4c0.6,0.6,1.1,1.4,1.6,2.1c0.4,0.7,0.9,1.4,1.2,1.5c0.3,0.1,0.6,0.2,0.9,0.2
		c0.6,0.1,1.2,0.2,1.4,0.6c0,0.1,0.1,0.2,0.2,0.3l0.1-0.2c0,0,0,0,0.1-0.1l2.4-1C88.7,135.2,88.7,135.2,88.7,135.2z"/>
	<path fill="#FFFFFF" d="M101.9,136.6c0-0.1-0.1-0.1-0.1-0.2c-0.1-0.1-0.1-0.2-0.2-0.2c0-0.1-0.1-0.1-0.1-0.2
		c-0.1-0.1-0.1-0.2-0.2-0.3c0,0-0.1-0.1-0.1-0.1c-0.1-0.1-0.3-0.2-0.4-0.3c0,0,0,0-0.1-0.1l-0.2-1l-4.7-5.2c0,0,0-0.1,0-0.2l1.9-1.9
		l0.3-7.4c-0.1,0-0.3,0-0.5,0c-1.2-0.1-3.8-0.2-6-0.2c-0.2,0-0.4,0-0.6,0c-0.6,0-1.3,0-1.9-0.1c0,0-0.1,0-0.1,0
		c-0.6-0.1-1.2-0.2-1.8-0.3c0,0-0.1,0-0.1,0v5.8c0,0,0,0.1,0,0.1c0,0-0.1,0-0.1,0l-4.1-0.4l-0.8,2.4c0.1,0.3,0.9,2,1.6,2.7
		c0.1,0.1,0.3,0.3,0.6,0.5c1.5,1.3,4.6,4,4.8,5.4c0,0,0,0,0,0l0.2,1.1l1.3-0.1l1.2-0.1l0.5-0.4c0,0,0.1,0,0.1,0l0.9,0.4v-0.5
		c0-0.1,0-0.1,0.1-0.1l1-0.3c0,0,0,0,0.1,0l1.1,0.3l1.1-0.3l1.2-0.7c0,0,0,0,0.1,0c0,0,0.1,0,0.1,0l1.7,1.4l0.9,1l1.3-0.1
		C102,136.7,101.9,136.7,101.9,136.6z"/>
	<path fill="#FFFFFF" d="M107.8,117.5C107.7,117.5,107.7,117.5,107.8,117.5c-0.2,0-0.3,0-0.4,0c-0.1,0-0.1,0-0.2,0
		c-0.1,0-0.2,0-0.3,0c-0.1,0-0.1,0-0.2,0c-0.1,0-0.2,0-0.4,0c-0.1,0-0.1,0-0.2,0c-0.1,0-0.3,0-0.4,0c-0.1,0-0.1,0-0.2,0
		c-0.2,0-0.4,0-0.6,0c0,0,0,0,0,0c-0.3,0-0.6,0-0.8,0c-0.4,0-0.7,0.1-1,0.1c-1.8,0.4-4.4,2-4.4,2.1c0,0,0,0-0.1,0c0,0,0,0,0,0
		c0,0,0,0-0.1,0c0,0-0.1,0-0.1,0L98,127c0,0,0,0.1,0,0.1l-1.9,1.9l4.6,5.1c0,0,0,0,0,0.1l0.2,1c0.2,0.1,0.3,0.2,0.4,0.4
		c0,0,0.1,0.1,0.1,0.2c0.1,0.1,0.2,0.2,0.2,0.3c0,0.1,0.1,0.1,0.1,0.2c0.1,0.1,0.1,0.2,0.2,0.2c0,0.1,0.1,0.1,0.1,0.2
		c0,0.1,0.1,0.1,0.1,0.2l0.7,0l1.7-2.1c0,0,0,0,0.1,0l1.9-0.4l0.6-0.2c0.1-0.1,0.1-0.2,0.2-0.3c0.1-0.1,0.1-0.2,0.2-0.3
		c0.1-0.1,0.2-0.2,0.2-0.3c0-0.1,0.1-0.1,0.1-0.2c0.1-0.1,0.2-0.2,0.3-0.3c0,0,0,0,0,0c0.1-0.1,0.2-0.2,0.3-0.3
		c0.2-0.1,0.3-0.2,0.5-0.3c0.6-0.4,1-0.6,1.2-1.5c0.3-1.1,1.5-3.4,2.3-3.7c0.2-0.1,0.4-0.2,0.5-0.3c0.3-0.2,0.6-0.5,0.7-0.6
		l-0.2-0.4l-1.3-1.2c0,0,0-0.1,0-0.1v-1.5c-0.1-0.2-0.7-1.3-1.6-1.7c-0.1-0.1-0.3-0.2-0.4-0.2c0,0-0.1-0.1-0.1-0.1
		c-0.1-0.1-0.2-0.1-0.3-0.2c-0.1,0-0.1-0.1-0.2-0.1c-0.1-0.1-0.2-0.1-0.2-0.2c-0.1-0.1-0.1-0.1-0.2-0.2c-0.1-0.1-0.1-0.1-0.2-0.2
		c0-0.1-0.1-0.1-0.1-0.2c-0.1-0.1-0.1-0.2-0.2-0.2c0-0.1-0.1-0.1-0.1-0.2c0-0.1-0.1-0.2-0.1-0.3c0-0.1,0-0.2-0.1-0.2
		c0-0.1-0.1-0.2-0.1-0.3c0-0.1,0-0.2,0-0.3c0-0.1,0-0.2,0-0.2C108.2,117.6,108,117.6,107.8,117.5z"/>
	<path fill="#FFFFFF" d="M108.3,116.3l0.2,1.2c0,0,0,0,0,0l0,0c0,0.2,0,0.3,0,0.5c0.2,1.2,1.2,2.1,2.2,2.6c1,0.5,1.7,1.8,1.7,1.9
		c0,0,0,0,0,0.1v1.5l1.3,1.2c0,0,0,0,0,0l0.2,0.4c0,0,0,0.1,0,0.1c0,0-0.7,0.8-1.4,1.1c-0.6,0.3-1.9,2.4-2.1,3.6
		c-0.2,1-0.7,1.3-1.3,1.7c-0.2,0.1-0.3,0.2-0.5,0.3c-0.1,0.1-0.2,0.1-0.3,0.2c0,0-0.1,0.1-0.1,0.1c-0.1,0.1-0.1,0.1-0.2,0.2
		c0,0-0.1,0.1-0.1,0.1c-0.1,0.1-0.1,0.2-0.2,0.3c0,0.1-0.1,0.1-0.1,0.2c0,0-0.1,0.1-0.1,0.1c0,0,0,0,0.1,0l1,1l2.8-0.3l2.8-0.7
		l1.4-0.4c0,0,0.1,0,0.1,0l0.8,0.5c0-0.1,0.1-0.1,0.1-0.1l1.1-0.1c0.1-0.1,0.4-0.4,0.8-0.4c0.1,0,0.2,0,0.3,0.1
		c0.1-0.2,0.5-0.8,0.7-1.7c0-0.1,0-0.1,0.1-0.1c0,0,2-0.3,5.5-0.3c0,0,0.1,0,0.1,0c0,0,0.6,0.7,1.4,0.7c0.1,0,0.3,0,0.4-0.1
		c0,0,0.1,0,0.1,0c0,0,0.4,0.4,1,0.4c0.6,0,1.2-0.3,1.8-1c0,0,0.1,0,0.1,0h0.9l0.8-1.4c0-0.2,0-0.9,0.3-1.3c0.2-0.2,0.5-0.2,1,0.1
		c0.8,0.5,1.9,0.6,2.5,0.6c0.6,0,1.1-0.1,1.4-0.1c0.3-0.1,0.5-0.1,0.7-0.1c0.4,0,0.7,0.2,0.9,0.5c0.2,0.4,0.4,0.7,0.7,0.7
		c0.2,0,0.4-0.1,0.6-0.4c0.5-0.5,1-0.9,1.5-0.9c0.3,0,0.5,0.1,0.9,0.2c0.3,0.1,0.7,0.2,1.3,0.2c0.4,0,0.8,0,1.1-0.1
		c0.2,0,0.4,0,0.5,0c0.2,0,0.4,0.1,0.6,0.2c0.2,0.1,0.5,0.2,0.8,0.2c0.2,0,0.4,0,0.6-0.4l0.5-1v-2c-0.1,0-0.3,0-0.4,0
		c-0.4,0-0.7-0.1-0.9-0.2c-0.2,0-1,0.2-1.8,1c0,0,0,0-0.1,0c0,0-1.1,0.1-2.2,0.1c-1.2,0-2.2-0.1-2.8-0.4c-1.5-0.7-4-2-5.2-2.9
		c-0.4-0.3-0.9-0.5-1.4-0.5c-0.5,0-0.8,0.1-0.8,0.1c-0.1,0-0.1,0-0.1,0c0,0-0.9-1.2-2.3-1.2c0,0-0.1,0-0.1,0c0,0-0.1,0-0.1,0
		c-0.2-0.1-3.9-3.4-3.9-6.2c0,0,0-0.1,0-0.1c0,0,1.2-0.9,1.9-1.4l0.2-0.8l-0.3-0.3c0,0,0-0.1,0-0.1c0,0,0.1-0.1,0.1-0.1l0.5-0.1
		c0,0,0.1,0,0.1,0.1l0.5,0.7h0.6c0,0,0.1,0,0.1-0.1c0-0.1,0-0.3-0.3-0.7c0,0,0,0,0,0c0,0-1-2.9-3.2-3.3l-1.9,0.1
		c-0.1,0.3-0.6,1.2-1.9,2.1c-0.5,0.3-1.1,0.4-2.1,0.4c-1,0-2-0.1-2.9-0.3c-0.6-0.1-1.1-0.2-1.4-0.1c-0.9,0.1-1.4,0.7-1.4,0.7
		c-0.2,0.2-0.4,0.4-0.7,0.6c-0.1,0.1-0.2,0.1-0.3,0.2c-0.1,0.1-0.3,0.2-0.4,0.3c-0.1,0.1-0.2,0.1-0.3,0.2c-0.1,0.1-0.3,0.2-0.4,0.3
		c-0.1,0.1-0.2,0.1-0.3,0.2c-0.1,0.1-0.2,0.1-0.4,0.2c-0.1,0.1-0.2,0.1-0.3,0.2c-0.1,0-0.2,0.1-0.3,0.1c-0.1,0.1-0.2,0.1-0.3,0.1
		c-0.1,0-0.1,0.1-0.2,0.1c-0.1,0-0.2,0.1-0.3,0.1c0,0,0,0-0.1,0c-0.1,0-0.2,0.1-0.2,0.1L108.3,116.3z"/>
</g>
</svg>
