<?xml version="1.0" encoding="utf-8"?>
<!-- Generator: Adobe Illustrator 16.0.0, SVG Export Plug-In . SVG Version: 6.00 Build 0)  -->
<!DOCTYPE svg PUBLIC "-//W3C//DTD SVG 1.1//EN" "http://www.w3.org/Graphics/SVG/1.1/DTD/svg11.dtd">
<svg version="1.1" xmlns="http://www.w3.org/2000/svg" xmlns:xlink="http://www.w3.org/1999/xlink" x="0px" y="0px" width="200px"
	 height="200px" viewBox="0 0 200 200" enable-background="new 0 0 200 200" xml:space="preserve">
<g id="圖層_1">
</g>
<g id="圖層_2">
	<circle opacity="0.8" fill="#998675" cx="100" cy="100" r="100"/>
	<path fill="none" stroke="#FFFFFF" stroke-width="0.75" stroke-linejoin="round" stroke-miterlimit="10" d="M64.2,86.5
		c1.3-0.8,2.7-1.2,3.8-0.9c1.1,0.3,2.5,1.6,2.6,2.9c0.2,1.3-0.4,5.4,0.8,5.6c1.2,0.2,3.7,0.2,3.7,0.2l0.6,0.2l0.9-0.4
		c0,0,1.4-0.8,2.1-0.9s1.2-0.3,1.2-0.3l0.2-1.4l1.2-1.2l0.3-1.5c0,0,1-0.5,0.7-1.3l1.3-0.6c0,0,0.1-1.4-0.8-2.3c0,0-0.3-0.8,0.3-1.2
		s0.8-1.8,0.8-1.8s0-0.7,0.9-0.3c0,0,0.8,0,0.8-0.9l0.7-0.8v-3.3c0,0-0.8-0.3-0.3-0.8c0.6-0.5,1.8-1.5,1.8-1.5h1.4l1.4-0.9h0.7
		l0.3-0.7h0.8c0,0,1.4,0.4,1.8-0.7v-0.7l0.5-0.3l0.9-1.3v-0.7l-0.3-0.4l0.1-0.7l0.6-0.4c0,0,0.7-1.6,1.7-2.7c0.7-0.7,1.7-1.1,2-1.2
		c0.7-0.2,0.8-0.3,0.8-0.3v-1.4l0.2-1.8l0.5-0.3l-0.5-1.5c0,0-0.5-1-0.2-1.9c0.2-0.9,0.6-1.2,1.7-1.3l1.1-2.3c0,0,0.6-1.7,0-2.3
		c0,0-0.6-0.6,0.8-1.6c0.3-0.2,0.7-0.5,1-0.8l0-0.7h-1.8l-1.2-0.8l0.2-1.8c0,0,0.3-2.7-0.6-2.8c0,0,0-1.9-1.4-1.9c0,0-1-0.2-1.4,0.6
		l-1,0.4L97.2,42L96,43.7l0.5,0.4l-0.3,2.1c0,0-0.6,0.9-1.2,0l-0.6-0.4c0,0-1.4,0.4-1.9,1.6c-0.6,1.1-0.6,2.9-0.6,2.9
		s-0.3,0.8-2.3,1c0,0-0.8,0.7-1.7,1.2C87,53,86,52.9,86,52.9s-1.8-0.1-2.4,0.6c-0.6,0.7-1.5,2.9-0.3,4l-0.7,0.5l-1,1.4l-1.4-0.1
		l-0.7-0.1l-0.8-0.7l-0.9,0.8h-0.7c0,0-0.6-0.6-0.8-0.6s-1.8-0.2-1.8-0.2v-1.3l-1.3,1.2l0.1,0.8l-0.7,0.6l-0.3,1.3l-0.6,0.7
		l-0.5,0.2l-0.9,0.7c0,0-1.6,0.4-1.9,1.7c-0.3,1.2-1,1.7-1,1.7s-1.4,1.1-0.5,2l-2,0.3c0,0-1,0.7-1.1,1.3c0,0-3.6,3.8-4.8,5.2
		c-1.1,1.3-3.1,2.9-3.1,2.9s0,2,0.3,2.3c0.3,0.3-0.2,1-0.2,1l-2.2,0.8c0,0-0.5,2.3-0.3,3.3c0.8,0.8,1.9,1.6,3.2,2
		C59.6,88,62.9,87.3,64.2,86.5z"/>
	<path fill="none" stroke="#FFFFFF" stroke-width="0.75" stroke-linejoin="round" stroke-miterlimit="10" d="M75.7,103.3
		c2.1-0.4,3-0.4,3-0.4l1.1-0.7l1.1,0.9l2,0.3l2.2-2.4h0.9v-1.4l4.1-3l1.4-0.2l1.5,0.8l1.5-0.1l0.6-0.4l0.8,0l0.3,0.2l1.5-1.5
		l0.8-1.3l2.3-0.4l1.8-0.3l0.2-1l0.6-0.4v-0.8l1.1-0.3l0.7-0.6l0.8-0.7h0.8l1.1,0.5l0.8-0.5l0.9,0.3l0.8-0.2l0.8-1.2l0.4-1.3
		l1.4-0.8l1.2-0.4l1.8,0.2c0,0,0.8-0.6,1.3-2.1c0.5-1.5,1.2-0.6,1.4-3l0.4-0.8h0.8l1.5-1.5l0.1-0.8h-1.6c0,0,0.1-3.1-2.3-4.3
		l-1.4-1.6c0,0-0.1-1.4-0.6-2c-0.6-0.6-0.5-1.5-0.5-1.5l-1.8-0.8c0,0,0.8-0.1,1.1-1.9c0.3-1.1-0.6-1.6-0.6-1.6s-0.5-3.4-1.9-5.1
		c0,0-1.4-4-2.4-5.5l0.8-1.3l-0.5-1.2l0.7-1c0,0,0.5-0.6,0.1-1.5l-0.4-0.5l0.5-0.8l-0.1-0.4h-1.6l-0.6,0.7l-0.7-0.7l-0.6,0.4
		l-0.8,0.2l-0.6,0.7l-0.6-0.1l0-0.2c-0.4,0.3-0.7,0.6-1,0.8c-1.4,1-0.8,1.6-0.8,1.6c0.6,0.6,0,2.3,0,2.3l-1.1,2.3
		c-1.1,0.1-1.5,0.3-1.7,1.3c-0.2,0.9,0.2,1.9,0.2,1.9l0.5,1.5l-0.5,0.3l-0.2,1.8v1.4c0,0,0,0-0.8,0.3c-0.3,0.1-1.3,0.4-2,1.2
		c-1,1.1-1.7,2.7-1.7,2.7l-0.6,0.4l-0.1,0.7l0.3,0.4v0.7l-0.9,1.3l-0.5,0.3v0.7c-0.4,1.2-1.8,0.7-1.8,0.7h-0.8l-0.3,0.7h-0.7
		l-1.4,0.9h-1.4c0,0-1.2,1-1.8,1.5c-0.6,0.5,0.3,0.8,0.3,0.8v3.3l-0.7,0.8c0.1,0.9-0.8,0.9-0.8,0.9c-0.9-0.4-0.9,0.3-0.9,0.3
		s-0.2,1.3-0.8,1.8s-0.3,1.2-0.3,1.2c0.9,0.9,0.8,2.3,0.8,2.3l-1.3,0.6c0.3,0.8-0.7,1.3-0.7,1.3l-0.3,1.5l-1.2,1.2L80,92.8
		c0,0-0.4,0.1-1.2,0.3S76.7,94,76.7,94l-0.9,0.4l-0.6-0.2c0,0-2.5,0-3.7-0.2c-1.2-0.2-0.7-4.3-0.8-5.6c-0.2-1.3-1.5-2.6-2.6-2.9
		c-1.1-0.3-2.5,0.1-3.8,0.9c-1.3,0.8-4.6,1.6-7.4,0.7c-1.3-0.4-2.4-1.2-3.2-2c0,0.1,0.1,0.2,0.1,0.2l-0.2,1.5l-1,1.3l0.3,1.2
		c0.6,1.1,1.1,3,4.5,3.7c3.4,0.7,4.2,0.6,6.7,1.2c2.5,0.6,4,0.9,5.7,2.7c1.3,1.3,2.9,4.1,4,6C74.2,103.3,74.9,103.4,75.7,103.3z"/>
	<path fill="none" stroke="#FFFFFF" stroke-width="0.75" stroke-linejoin="round" stroke-miterlimit="10" d="M81.2,111.5
		c-0.4-1.1-0.4-1.6-0.4-2.2s0.4-1.4,0.4-1.4l0.3-2.8c0.3-0.5,0.7-1.2,1-1.7l-1.7-0.3l-1.1-0.9l-1.1,0.7c0,0-0.9,0-3,0.4
		c-0.7,0.1-1.4,0-2-0.2c0.4,0.7,0.6,1.3,0.8,1.6c0.6,1.3,0.8,3.1,0.4,5.2c-0.4,2.1-1.2,4.3-1.3,5.4c0,0.3-0.1,0.7-0.2,1.2l3,1l0.1,0
		l1.1-0.6c0,0,2.4,0.5,3.2,0.3c0.4-0.7,0.6-1.7,0.7-2.3C81.5,114.1,81.6,112.6,81.2,111.5z"/>
	<path fill="none" stroke="#FFFFFF" stroke-width="0.75" stroke-linejoin="round" stroke-miterlimit="10" d="M92.1,114.4
		c0-0.8,0-5.7,0-5.7s-0.5-0.8-2.6-0.9c0,0-0.3-0.5,0-1.3l5.2,0.1l1.1-0.9v-1.6h1.2l3,1.5l0.9,0.1c0,0,1.5-0.7,2.8-1.7
		c-0.6-0.4-1.3-0.7-2-1c-1.4-0.5-1.8-2.9-1.8-2.9h-1.5c0,0,0.4-1-0.8-1.7c-0.1-0.1-0.2-0.1-0.3-0.2c-0.4-0.3-0.9-0.9-1.3-1.4
		l-0.1-0.1l-0.8,0L94.3,97l-1.5,0.1l-1.5-0.8l-1.4,0.2l-4.1,3v1.4h-0.9l-2.2,2.4l-0.3,0c-0.3,0.5-0.6,1.2-1,1.7l-0.3,2.8
		c0,0-0.4,0.9-0.4,1.4s0,1.1,0.4,2.2s0.2,2.6,0.2,3.4c-0.1,0.6-0.2,1.6-0.7,2.3c0,0,0,0,0,0c0,0,2.7,0.3,3.8,0.8
		c0.5,0.2,1.4,0.5,2.5,0.8c1.1,0.3,2.5,0.5,4.1,0.5c0.2,0,0.5,0,0.7,0C91.9,118,92.1,115,92.1,114.4z"/>
	<path fill="none" stroke="#FFFFFF" stroke-width="0.75" stroke-linejoin="round" stroke-miterlimit="10" d="M109,115.4
		c-1.7-0.3-3.3,0.7-3.3,0.7l-0.9-0.4c0,0,0-3.4-0.6-4.5s-0.2-1.9-0.2-1.9c0.7-1.1,1-2.7,0.7-4c-0.1-0.6-0.5-1.1-1.1-1.5
		c-1.3,1-2.8,1.7-2.8,1.7l-0.9-0.1l-3-1.5h-1.2v1.6l-1.1,0.9l-5.2-0.1c-0.3,0.8,0,1.3,0,1.3c2.1,0.1,2.6,0.9,2.6,0.9s0,5,0,5.7
		c0,0.6-0.2,3.7-0.3,4.8c2.5,0,5.5,0.2,6.5,0.3c0.2,0,0.3,0,0.3,0s2.6-1.7,4.5-2.1c1.9-0.4,5.4,0.1,5.4,0.1l-0.2-1.2L109,115.4z"/>
	<path fill="none" stroke="#FFFFFF" stroke-width="0.75" stroke-linejoin="round" stroke-miterlimit="10" d="M130.1,97.3
		c0,0-0.2-1.2-0.7-1.5c0,0,0.3-1.2-0.2-1.6c-0.5-0.4-0.9,0.3-2-0.7c-1.1-1-1.6-1.3-1.6-1.3s-0.3-2.1-2.6-1.3c0,0-1.7-0.6-1.6-1.3
		l-1.8-0.5c0,0-1.2-0.2-2,0c0,0-0.4-0.7-1.1-0.7c0,0,0.2-1.5-0.7-1.9l-1.8-0.2l-1.2,0.4l-1.4,0.8l-0.4,1.3l-0.8,1.2l-0.8,0.2
		l-0.9-0.3l-0.8,0.5l-1.1-0.5h-0.8l-0.8,0.7l-0.7,0.6l-1.1,0.3v0.8l-0.6,0.4l-0.2,1l-1.8,0.3l-2.3,0.4l-0.8,1.3l-1.5,1.5l-0.2-0.1
		c0.4,0.6,0.9,1.1,1.3,1.4c0.1,0.1,0.2,0.1,0.3,0.2c1.1,0.7,0.8,1.7,0.8,1.7h1.5c0,0,0.4,2.4,1.8,2.9c1.4,0.5,2.8,1.2,3.1,2.4
		s0,2.8-0.7,4c0,0-0.5,0.8,0.2,1.9s0.6,4.5,0.6,4.5l0.9,0.4c0,0,1.7-1,3.3-0.7l0,0c0,0,2.8-0.8,4.5-2.6c0,0,0.5-0.7,1.5-0.8
		c1-0.1,4.8,1,6.3,0c1.5-1,1.9-2.1,1.9-2.1l2-0.1c0,0,1.5-0.7,0.8-1.4c0,0,1.5-0.3,1.5-1.3c0.1-1.1-0.3-1.4-0.3-1.4s0-1,1-0.8l0.4-2
		c0,0,0.2-1.3,1-1.5c0.8-0.2,1-1.4,1-1.4S131.4,98.1,130.1,97.3z"/>
	<path fill="none" stroke="#FFFFFF" stroke-width="0.75" stroke-linejoin="round" stroke-miterlimit="10" d="M114.2,133.9l-2.8,0.7
		l-2.8,0.3l-1-1.1l-0.9,0.3l-1.9,0.4l-1.7,2.2l-2.4,0.2l-0.9-1l-1.7-1.4l-1.2,0.7l-1.2,0.3l-1.1-0.3l-1,0.3v0.7l-1.1-0.4l-0.6,0.4
		l-1.3,0.2l-1.4,0.1l-0.3-1.2l-2.5,1l-0.2,0.5c0.5,1,1.5,2.8,0.8,3.1c-0.8,0.4-1.4,1-1.2,1.8c0.2,0.8,0.6,2.1-0.3,3s-2,1.7-1.8,2
		c0.2,0.3,1.7-0.5,2.4-1.2c0.7-0.8,1.7-2.5,1.9-2.5s0.8,0.7,0.5,1.2s-0.4,1.2,0.1,1.7c0.4,0.5,2.3,0.6,3.2,0.5c0,0,0.3,0,0,0.8
		c-0.3,0.8,0.5,1.1,0.8,1.3c0.4,0.2,2,1,2.5-1.1c0,0,0-1,0.5-0.6c0.5,0.3,0.4,1,0.4,1s-0.1,1,0,2.4c0.1,1.4,0.4,2.5,1.4,3.3
		c1,0.7,0.5,1.7,1.2,2.6s0.6,1.5,2.2,1.8s3.6,0.2,4.3,0c0.7-0.2,0.3-1.2,1.1-1.2c0.7,0,1.4,0.1,1.4,0.1s0.7,0.8,2.3,0.8
		c0,0,1.2,1.7,3.1,0.5c0,0,0.7-0.5,1.2,0.1s1.1,2,2.7,1.7l1.9-0.4v-0.7l0.8-0.2l1.3-0.1c0,0,0.6-0.6,1.5-1.1c1-0.5,2.1-0.6,2.1-0.6
		s0.3-0.4,0.9-0.3c0.6,0.2,0.8-0.2,0.8-0.2l-0.3-1.3c0,0-2.6-1.9-3.5-2.1c-0.8-0.2-1.8,0.1-2.5,0.1s-2-1.1-2.5-1.5
		c-0.5-0.3-0.2-1,0.2-1.5v-1.6c0,0-0.7-1.5-0.1-1.6s1.5-1.3,0.2-1.9c-1.3-0.6-1-2.1-1-2.1l0.6-0.3l0.1-0.7l0.6-0.7
		c0,0-0.5-1.9-1.4-2.7h-1.1l-0.1-2c0,0,0.7-1,0.9-2.3l-1-0.6L114.2,133.9z"/>
	<path fill="none" stroke="#FFFFFF" stroke-width="0.75" stroke-linejoin="round" stroke-miterlimit="10" d="M75,127.7
		c-0.6-0.8-1-0.9-1.1-1.7c-0.1-0.8,0.4-1.6,0.8-2.4s1-2.6,1-3.5c0-0.8,0.3-1.4,0.5-1.9c0.1-0.2,0.1-0.5,0.1-0.8l-3-1
		c-0.2,1-0.7,2.2-1.4,2.7c-1,0.7-1.5,1.3-2.5,1.1c-1-0.3-1.8-0.8-2.2,0.1c-0.3,0.9-0.7,1.3-1.3,1.3c-0.6,0-1.9,0.6-1.7,1.9
		c0.2,1.3,1.1,3.1,1.6,4c0.5,0.9,0.9,2.8,0.2,3.6c-0.7,0.8-2.1,1.1-2.1,1.1s-0.7,0.5-0.3,1c0.4,0.5,0.5,1.1,1.4,1.1s1.6,0.2,2.3,1.1
		c0.6,1,2.2,1.5,3.3,0.7c1.1-0.7,2.9-2.9,3.7-3.9c0.6-0.8,1.5-1.9,3-1.9v-1.2C77.3,129.2,75.6,128.5,75,127.7z"/>
	<path fill="none" stroke="#FFFFFF" stroke-width="0.75" stroke-linejoin="round" stroke-miterlimit="10" d="M83.6,129.5
		c-0.8-0.8-1.7-2.8-1.7-2.8l0.8-2.5l4.2,0.4v-5.9c-1.1-0.3-1.9-0.5-2.5-0.8c-1.1-0.4-3.8-0.8-3.8-0.8c-0.7,0.2-3.2-0.3-3.2-0.3
		l-1.1,0.6l-0.1,0c0,0.3-0.1,0.6-0.1,0.8c-0.1,0.5-0.5,1-0.5,1.9c0,0.8-0.5,2.7-1,3.5s-0.9,1.6-0.8,2.4c0.1,0.8,0.5,0.9,1.1,1.7
		c0.6,0.8,2.3,1.5,2.3,1.5v1.2c0.3,0,0.6,0.1,1,0.2c0,0,1.3,0.2,2.5,1.3c1.2,1.2,2.1,3.4,2.8,3.6c0.7,0.3,2,0.2,2.2,0.7
		c0,0.1,0.1,0.3,0.3,0.6l0.2-0.5l2.5-1C88.7,133.7,84.4,130.3,83.6,129.5z"/>
	<path fill="none" stroke="#FFFFFF" stroke-width="0.75" stroke-linejoin="round" stroke-miterlimit="10" d="M100.8,135.2l-0.2-1
		l-4.7-5.2l2-2l0.3-7.6c-1.1-0.1-4.6-0.3-7.2-0.3c-1.6,0-2.9-0.2-4.1-0.5v5.9l-4.2-0.4l-0.8,2.5c0,0,0.8,2,1.7,2.8s5.1,4.2,5.3,5.8
		l0.3,1.2l1.4-0.1l1.3-0.2l0.6-0.4l1.1,0.4v-0.7l1-0.3l1.1,0.3l1.2-0.3l1.2-0.7l1.7,1.4l0.9,1l1.6-0.1
		C101.9,136.4,101.5,135.7,100.8,135.2z"/>
	<path fill="none" stroke="#FFFFFF" stroke-width="0.75" stroke-linejoin="round" stroke-miterlimit="10" d="M108.6,132.4
		c0.8-0.6,1.5-0.8,1.8-1.9c0.3-1.2,1.5-3.4,2.2-3.6c0.7-0.3,1.3-1,1.3-1l-0.2-0.4l-1.4-1.2v-1.6c0,0-0.7-1.3-1.6-1.8
		c-1-0.5-2.4-1.7-2.3-3.2c0,0-3.5-0.5-5.4-0.1c-1.9,0.4-4.5,2.1-4.5,2.1s-0.1,0-0.3,0l-0.3,7.6l-2,2l4.7,5.2l0.2,1
		c0.7,0.5,1.1,1.2,1.4,1.7l0.9-0.1l1.7-2.2l1.9-0.4l0.6-0.2C107.6,133.4,108.2,132.8,108.6,132.4z"/>
	<path fill="none" stroke="#FFFFFF" stroke-width="0.75" stroke-linejoin="round" stroke-miterlimit="10" d="M146,126.2
		c0,0-1,0.1-1.9,1.1c0,0-3.4,0.4-5-0.3c-1.6-0.7-4-2.1-5.2-2.9c-1.2-0.8-2.4-0.3-2.4-0.3s-1-1.3-2.5-1.2c0,0-3.8-3.4-3.8-6.1
		c0,0,1.2-1,1.9-1.5l0.2-1l-0.3-0.3l0.5-0.1l0.5,0.7h0.6c0,0,0.6-0.1-0.1-1c0,0-1-3-3.3-3.4l-2,0.1c0,0-0.4,1.1-1.9,2.1
		c-1.5,1-5.3-0.1-6.3,0c-1,0.1-1.5,0.8-1.5,0.8c-1.7,1.8-4.5,2.6-4.5,2.6l-0.8,0.8l0.2,1.2c-0.1,1.6,1.3,2.7,2.3,3.2
		c1,0.5,1.6,1.8,1.6,1.8v1.6l1.4,1.2l0.2,0.4c0,0-0.6,0.8-1.3,1c-0.7,0.3-1.9,2.5-2.2,3.6c-0.3,1.2-1,1.3-1.8,1.9
		c-0.4,0.3-1,1-1.4,1.6l0.3-0.1l1,1.1l2.8-0.3l2.8-0.7l1.4-0.4l1,0.6c0-0.1,0-0.1,0-0.2l1.2-0.1c0,0,0.5-0.6,1.1-0.3
		c0,0,0.6-0.6,0.7-1.8c0,0,1.9-0.3,5.4-0.3c0,0,0.8,1,1.9,0.7c0,0,1.2,1.3,2.9-0.6h1l0.9-1.5c0,0-0.2-2,1-1.1c1.2,0.8,3.3,0.7,4,0.5
		c0.7-0.2,1.2-0.2,1.5,0.3s0.7,1.2,1.5,0.3c0.8-0.8,1.4-1,2.3-0.6c0.9,0.4,2.4,0.1,2.9,0.1s1.5,1,2-0.1c0.5-1.1,0.5-1.1,0.5-1.1
		v-2.1C147.5,126.4,146.5,126.5,146,126.2z"/>
</g>
</svg>
