<?xml version="1.0" encoding="utf-8"?>
<!-- Generator: Adobe Illustrator 16.0.0, SVG Export Plug-In . SVG Version: 6.00 Build 0)  -->
<!DOCTYPE svg PUBLIC "-//W3C//DTD SVG 1.1//EN" "http://www.w3.org/Graphics/SVG/1.1/DTD/svg11.dtd">
<svg version="1.1" xmlns="http://www.w3.org/2000/svg" xmlns:xlink="http://www.w3.org/1999/xlink" x="0px" y="0px" width="200px"
	 height="200px" viewBox="0 0 200 200" enable-background="new 0 0 200 200" xml:space="preserve">
<g id="圖層_1">
</g>
<g id="圖層_2">
	<circle fill="#998675" cx="100" cy="100" r="100"/>
	<path fill="#FFFFFF" d="M23.6,108.9V84.3H29V94h10.7v-9.7h5.5v24.6h-5.5V98.2H29v10.8H23.6z"/>
	<path fill="#FFFFFF" d="M45.7,109.4h-6.5V98.7h-9.7v10.8h-6.5V83.8h6.5v9.7h9.7v-9.7h6.5V109.4z M40.3,108.4h4.5V84.8h-4.5v9.7
		H28.5v-9.7h-4.5v23.6h4.5V97.7h11.7V108.4z"/>
	<path fill="#FFFFFF" d="M51,99.8c0-1.6,0.4-3.1,1.3-4.5s2.1-2.6,3.6-3.4s3.3-1.2,5.2-1.2c3,0,5.4,0.9,7.3,2.6s2.8,4,2.8,6.6
		c0,2.7-1,4.9-2.9,6.7c-1.9,1.8-4.3,2.7-7.2,2.7c-1.8,0-3.5-0.4-5.1-1.1s-2.9-1.8-3.7-3.2S51,101.8,51,99.8z M56.3,100
		c0,1.8,0.5,3.1,1.4,4.1c0.9,0.9,2.1,1.4,3.4,1.4s2.5-0.5,3.4-1.4c0.9-0.9,1.4-2.3,1.4-4.1c0-1.7-0.5-3.1-1.4-4
		c-0.9-0.9-2.1-1.4-3.4-1.4s-2.5,0.5-3.4,1.4C56.7,96.9,56.3,98.2,56.3,100z"/>
	<path fill="#FFFFFF" d="M61.1,109.8c-1.9,0-3.7-0.4-5.3-1.1c-1.7-0.8-3-1.9-3.9-3.4c-0.9-1.5-1.3-3.3-1.3-5.5
		c0-1.6,0.5-3.3,1.3-4.8c0.9-1.5,2.2-2.7,3.8-3.6c1.6-0.8,3.4-1.2,5.4-1.2c3.1,0,5.7,0.9,7.6,2.8c2,1.8,3,4.2,3,7c0,2.8-1,5.2-3,7.1
		C66.7,108.9,64.1,109.8,61.1,109.8z M61,91.2c-1.8,0-3.5,0.4-5,1.1c-1.5,0.7-2.6,1.8-3.4,3.2c-0.8,1.4-1.2,2.8-1.2,4.3
		c0,1.9,0.4,3.6,1.2,5c0.8,1.3,2,2.4,3.5,3c1.6,0.7,3.2,1.1,4.9,1.1c2.8,0,5.1-0.8,6.9-2.5c1.8-1.7,2.7-3.8,2.7-6.3
		c0-2.6-0.9-4.6-2.7-6.3C66.2,92,63.9,91.2,61,91.2z M61.1,106c-1.5,0-2.8-0.5-3.8-1.6c-1-1-1.5-2.5-1.5-4.4s0.5-3.4,1.5-4.4
		c1-1,2.3-1.6,3.8-1.6c1.5,0,2.8,0.5,3.8,1.6c1,1,1.5,2.5,1.5,4.4c0,1.9-0.5,3.4-1.5,4.5C63.8,105.4,62.6,106,61.1,106z M61.1,95
		c-1.2,0-2.2,0.4-3.1,1.3c-0.8,0.8-1.2,2.1-1.2,3.7c0,1.6,0.4,2.9,1.2,3.7c0.8,0.8,1.8,1.3,3.1,1.3s2.2-0.4,3.1-1.3
		c0.8-0.8,1.2-2.1,1.2-3.8c0-1.6-0.4-2.8-1.2-3.7C63.3,95.4,62.3,95,61.1,95z"/>
	<path fill="#FFFFFF" d="M85.6,91.1v3.8H82v7.2c0,1.5,0,2.3,0.1,2.6c0.1,0.2,0.2,0.4,0.5,0.6c0.2,0.2,0.5,0.2,0.9,0.2
		c0.5,0,1.2-0.1,2.1-0.4l0.4,3.7c-1.2,0.5-2.6,0.7-4.1,0.7c-0.9,0-1.8-0.1-2.5-0.4c-0.7-0.3-1.3-0.6-1.6-1.1
		c-0.4-0.5-0.6-1.1-0.7-1.9c-0.1-0.5-0.2-1.7-0.2-3.3v-7.8h-2.4v-3.8h2.4v-3.5l5.2-2.8v6.3H85.6z"/>
	<path fill="#FFFFFF" d="M81.9,109.8c-1,0-1.9-0.2-2.7-0.5c-0.8-0.3-1.5-0.7-1.9-1.3c-0.4-0.5-0.7-1.2-0.8-2.1
		c-0.1-0.6-0.2-1.7-0.2-3.4v-7.3h-2.4v-4.8h2.4v-3.3l6.2-3.3v6.6h3.6v4.8h-3.6v6.7c0,2,0.1,2.3,0.1,2.4c0,0.1,0.1,0.2,0.3,0.3
		c0.4,0.3,1.2,0.2,2.5-0.3l0.6-0.2l0.6,4.6l-0.4,0.1C84.9,109.6,83.5,109.8,81.9,109.8z M74.9,94.4h2.4v8.3c0,1.6,0,2.7,0.1,3.2
		c0.1,0.7,0.3,1.3,0.6,1.6c0.3,0.4,0.8,0.7,1.4,0.9c0.7,0.3,1.5,0.4,2.3,0.4c1.3,0,2.5-0.2,3.6-0.5l-0.3-2.7c-1.4,0.4-2.2,0.4-2.8,0
		c-0.3-0.2-0.6-0.5-0.7-0.9c-0.1-0.2-0.1-0.7-0.1-2.7v-7.7h3.6v-2.8h-3.6v-6l-4.2,2.2v3.7h-2.4V94.4z"/>
	<path fill="#FFFFFF" d="M102.3,108.9V84.3h8.2l4.9,16.8l4.9-16.8h8.2v24.6h-5.1V89.6l-5.4,19.4h-5.3l-5.3-19.4v19.4H102.3z"/>
	<path fill="#FFFFFF" d="M128.9,109.4h-6.1V93.2l-4.5,16.2h-6l-4.5-16.2v16.2h-6.1V83.8h9l4.5,15.5l4.5-15.5h9.1V109.4z
		 M123.8,108.4h4.1V84.8h-7.3l-5.2,18.1l-5.3-18.1h-7.3v23.6h4.1V85.9l6.2,22.6h4.5l6.3-22.5V108.4z"/>
	<path fill="#FFFFFF" d="M139,96.5l-4.7-0.8c0.5-1.7,1.4-3,2.7-3.8s3.2-1.2,5.7-1.2c2.3,0,4,0.3,5.2,0.8c1.1,0.5,1.9,1.1,2.4,1.9
		c0.5,0.8,0.7,2.2,0.7,4.2l-0.1,5.5c0,1.6,0.1,2.7,0.3,3.5s0.5,1.5,0.9,2.4H147c-0.1-0.3-0.3-0.8-0.5-1.4c-0.1-0.3-0.1-0.5-0.2-0.6
		c-0.9,0.8-1.8,1.4-2.8,1.8c-1,0.4-2.1,0.6-3.2,0.6c-2,0-3.6-0.5-4.8-1.5s-1.8-2.3-1.8-3.8c0-1,0.3-1.9,0.8-2.7
		c0.5-0.8,1.3-1.4,2.2-1.8s2.3-0.8,4.1-1.1c2.4-0.4,4.1-0.8,5.1-1.1v-0.5c0-0.9-0.2-1.6-0.7-1.9c-0.5-0.4-1.4-0.6-2.8-0.6
		c-0.9,0-1.6,0.2-2.2,0.5S139.3,95.7,139,96.5z M145.9,100.4c-0.7,0.2-1.7,0.4-3.2,0.7c-1.4,0.3-2.4,0.6-2.8,0.8c-0.7,0.4-1,1-1,1.7
		c0,0.7,0.3,1.2,0.8,1.7s1.2,0.7,2.1,0.7c0.9,0,1.8-0.3,2.7-0.8c0.6-0.4,1-1,1.2-1.6c0.1-0.4,0.2-1.2,0.2-2.3V100.4z"/>
	<path fill="#FFFFFF" d="M140.2,109.8c-2.1,0-3.8-0.5-5.1-1.6c-1.3-1.1-1.9-2.5-1.9-4.2c0-1.1,0.3-2.1,0.9-3c0.6-0.9,1.4-1.5,2.4-2
		c1-0.4,2.4-0.8,4.2-1.1c2.1-0.4,3.7-0.7,4.6-1v-0.1c0-0.7-0.2-1.3-0.5-1.6c-0.3-0.2-0.9-0.5-2.5-0.5c-0.8,0-1.5,0.1-1.9,0.4
		c-0.4,0.3-0.8,0.8-1,1.5l-0.1,0.4l-5.7-0.9l0.2-0.5c0.6-1.8,1.6-3.2,2.9-4.1c1.4-0.9,3.4-1.3,6-1.3c2.4,0,4.2,0.3,5.4,0.8
		c1.2,0.5,2.1,1.2,2.6,2.1c0.5,0.9,0.8,2.3,0.8,4.5l-0.1,5.5c0,1.5,0.1,2.6,0.2,3.4c0.2,0.7,0.5,1.5,0.9,2.3l0.4,0.7h-6.3l-0.1-0.3
		c-0.1-0.3-0.3-0.7-0.5-1.3c-0.8,0.6-1.6,1-2.4,1.4C142.6,109.6,141.5,109.8,140.2,109.8z M142.4,93.8c1.5,0,2.5,0.2,3.1,0.7
		c0.6,0.5,0.9,1.3,0.9,2.3v0.8l-0.3,0.1c-1,0.4-2.7,0.8-5.1,1.2c-1.7,0.3-3.1,0.7-4,1.1c-0.9,0.4-1.5,0.9-2,1.6
		c-0.5,0.7-0.7,1.5-0.7,2.4c0,1.4,0.5,2.5,1.6,3.4c1.1,0.9,2.6,1.4,4.4,1.4c1.1,0,2.1-0.2,3.1-0.6c0.9-0.4,1.9-0.9,2.7-1.7l0.5-0.5
		l0.3,0.7c0,0.1,0.1,0.3,0.2,0.6c0.1,0.4,0.2,0.8,0.3,1h4c-0.3-0.6-0.5-1.2-0.6-1.8c-0.2-0.8-0.3-2-0.3-3.6l0.1-5.5
		c0-2.4-0.3-3.5-0.6-4c-0.4-0.7-1.1-1.2-2.2-1.7c-1.1-0.5-2.7-0.7-5-0.7c-2.4,0-4.3,0.4-5.5,1.2c-1,0.7-1.8,1.7-2.3,3l3.7,0.6
		c0.3-0.7,0.8-1.3,1.3-1.6C140.5,94,141.4,93.8,142.4,93.8z M141.8,106.5c-1,0-1.8-0.3-2.4-0.8c-0.7-0.6-1-1.3-1-2.1
		c0-0.9,0.4-1.6,1.3-2.1c0.5-0.3,1.5-0.6,3-0.9c1.4-0.3,2.5-0.5,3.1-0.7l0.6-0.2v1.6c0,1.2-0.1,2-0.2,2.5c-0.2,0.7-0.7,1.3-1.4,1.8
		C143.8,106.2,142.8,106.5,141.8,106.5z M145.4,101c-0.7,0.2-1.5,0.4-2.6,0.6c-1.7,0.3-2.4,0.6-2.7,0.8c-0.5,0.3-0.8,0.7-0.8,1.2
		c0,0.5,0.2,0.9,0.6,1.3c0.5,0.4,1,0.6,1.7,0.6c0.8,0,1.7-0.2,2.4-0.7c0.5-0.4,0.9-0.8,1-1.3c0.1-0.2,0.2-0.8,0.2-2.1V101z"/>
	<path fill="#FFFFFF" d="M157.3,91.1h4.8v2.6c0.6-0.9,1.5-1.6,2.6-2.2c1.1-0.6,2.3-0.8,3.6-0.8c2.3,0,4.2,0.8,5.8,2.4
		c1.6,1.6,2.4,3.9,2.4,6.8c0,3-0.8,5.3-2.4,6.9c-1.6,1.6-3.5,2.5-5.8,2.5c-1.1,0-2.1-0.2-3-0.6c-0.9-0.4-1.8-1.1-2.8-2v9h-5.2V91.1z
		 M162.4,99.7c0,2,0.4,3.5,1.3,4.4s1.9,1.4,3.2,1.4c1.2,0,2.2-0.4,3-1.3s1.2-2.3,1.2-4.3c0-1.9-0.4-3.3-1.2-4.2s-1.8-1.4-3.1-1.4
		c-1.3,0-2.3,0.4-3.2,1.3S162.4,98,162.4,99.7z"/>
	<path fill="#FFFFFF" d="M163,116.2h-6.2V90.6h5.8v1.8c0.5-0.5,1.1-0.9,1.8-1.3c1.1-0.6,2.4-0.9,3.8-0.9c2.4,0,4.5,0.9,6.2,2.6
		c1.7,1.7,2.5,4.1,2.5,7.1c0,3.1-0.9,5.5-2.5,7.3c-1.7,1.7-3.8,2.6-6.2,2.6c-1.1,0-2.2-0.2-3.2-0.6c-0.7-0.3-1.4-0.7-2.1-1.3V116.2z
		 M157.8,115.2h4.2v-9.7l0.9,0.8c0.9,0.9,1.8,1.5,2.6,1.9c0.8,0.4,1.7,0.5,2.8,0.5c2.1,0,3.9-0.8,5.4-2.3c1.5-1.5,2.3-3.8,2.3-6.6
		c0-2.8-0.8-4.9-2.2-6.4c-1.5-1.5-3.3-2.3-5.4-2.3c-1.2,0-2.3,0.3-3.3,0.8c-1,0.5-1.8,1.2-2.4,2l-0.9,1.3v-3.7h-3.8V115.2z
		 M166.9,106.1c-1.4,0-2.6-0.5-3.6-1.6c-0.9-1.1-1.4-2.7-1.4-4.8c0-1.9,0.5-3.3,1.4-4.3c0.9-1,2.1-1.5,3.5-1.5
		c1.4,0,2.5,0.5,3.4,1.5c0.9,1,1.4,2.5,1.4,4.5c0,2.1-0.5,3.7-1.3,4.7C169.4,105.6,168.3,106.1,166.9,106.1z M166.9,94.9
		c-1.1,0-2.1,0.4-2.8,1.2c-0.7,0.8-1.1,2-1.1,3.6c0,1.9,0.4,3.2,1.2,4.1c0.8,0.9,1.7,1.3,2.8,1.3c1.1,0,1.9-0.4,2.6-1.2
		c0.7-0.8,1.1-2.1,1.1-4c0-1.7-0.4-3-1.1-3.8C168.8,95.3,167.9,94.9,166.9,94.9z"/>
</g>
</svg>
