<?xml version="1.0" encoding="utf-8"?>
<!-- Generator: Adobe Illustrator 16.0.0, SVG Export Plug-In . SVG Version: 6.00 Build 0)  -->
<!DOCTYPE svg PUBLIC "-//W3C//DTD SVG 1.1//EN" "http://www.w3.org/Graphics/SVG/1.1/DTD/svg11.dtd">
<svg version="1.1" xmlns="http://www.w3.org/2000/svg" xmlns:xlink="http://www.w3.org/1999/xlink" x="0px" y="0px" width="200px"
	 height="200px" viewBox="0 0 200 200" enable-background="new 0 0 200 200" xml:space="preserve">
<g id="圖層_1">
</g>
<g id="圖層_2">
	<circle opacity="0.5" fill="#998675" cx="100" cy="100" r="100"/>
	<path fill="#00FF00" stroke="#8EFF0C" stroke-width="5" stroke-linejoin="round" stroke-miterlimit="10" d="M101.9,120.6
		c0,0-18.2,10.8-20.4-4.4c0,0-12.5,11.1-16.6-7.6c0,0-24.6-3.9-9.7-23.5c0,0-15.9,2.3-2.4-16.1c7.3-11.3,13.3-9.4,13.3-9.4
		S54.8,50.1,72.3,46c8.1-1.4,12.5,2.1,12.5,2.1s3.6-5.8,9.7-0.7c0,0,15.6-18.4,28.2,3c0,0,19.9-9.2,18.7,17.3c0,0,21.5,7.1,4.5,21.7
		c0,0,8,7.6-2.1,16.8s-16.8,2.5-16.8,2.5S135.6,124.7,101.9,120.6z"/>
	<path fill="#754C24" stroke="#8C6239" stroke-width="2" stroke-miterlimit="10" d="M80.2,105.8c0,0,16.8,7,14.1,24.2
		C91.5,147.1,76,150.9,76,150.9s11.6,3,18.5,0l7.7,9.1l5.2-10.2c0,0,11.3,5.1,17.4-0.8c0,0-11-3.2-9.7-21.7
		c1.4-18.5,9.7-29.5,9.7-29.5s-19,6.7-22.6,17.5C102.3,115.2,103.6,104.7,80.2,105.8z"/>
	<path fill="#FFFFFF" d="M55.9,91.2c1.3,0.9,2.8,1.6,4.4,2.1l-2,3.5c-0.8-0.2-1.6-0.5-2.4-0.9c-0.2-0.1-1.4-0.8-3.6-2.2
		c-1.8,0.7-3.7,1.1-5.9,1.1c-4.2,0-7.4-1.1-9.8-3.3C34.2,89.2,33,86,33,82c0-4,1.2-7.1,3.5-9.4s5.6-3.4,9.6-3.4c4,0,7.2,1.1,9.6,3.4
		c2.3,2.2,3.5,5.4,3.5,9.4c0,2.1-0.3,4-1,5.6C57.7,88.8,57,90,55.9,91.2z M51.5,88.4c0.7-0.8,1.2-1.7,1.6-2.7
		c0.4-1.1,0.5-2.3,0.5-3.7c0-2.8-0.7-5-2.1-6.4c-1.4-1.4-3.2-2.1-5.4-2.1c-2.2,0-4,0.7-5.4,2.1c-1.4,1.4-2.1,3.5-2.1,6.4
		c0,2.9,0.7,5,2.1,6.5c1.4,1.4,3.1,2.1,5.2,2.1c0.8,0,1.5-0.1,2.2-0.4c-1.1-0.7-2.2-1.2-3.4-1.5l1.5-2.8
		C48.1,86.4,49.8,87.3,51.5,88.4z"/>
	<path fill="#FFFFFF" d="M58.5,97.4l-0.4-0.1c-0.9-0.2-1.7-0.5-2.5-0.9c-0.1,0-0.3-0.1-3.5-2.1c-1.8,0.7-3.7,1-5.8,1
		c-4.3,0-7.7-1.2-10.1-3.5c-2.4-2.3-3.7-5.6-3.7-9.8c0-4.1,1.2-7.4,3.7-9.7c2.4-2.3,5.8-3.5,9.9-3.5c4.1,0,7.5,1.2,9.9,3.5
		c2.4,2.3,3.7,5.6,3.7,9.7c0,2.2-0.3,4.1-1,5.8c-0.4,1.1-1.1,2.2-2,3.3c1.2,0.7,2.4,1.3,3.7,1.7L61,93L58.5,97.4z M52.2,93.1
		l0.2,0.1c2.9,1.8,3.5,2.1,3.6,2.2c0.7,0.3,1.3,0.6,2,0.8l1.5-2.6c-1.4-0.5-2.7-1.2-3.9-1.9l-0.5-0.3l0.4-0.4c1-1.1,1.8-2.3,2.2-3.4
		c0.6-1.5,0.9-3.4,0.9-5.4c0-3.9-1.1-6.9-3.4-9c-2.2-2.1-5.3-3.2-9.2-3.2c-3.9,0-7,1.1-9.3,3.2c-2.2,2.1-3.4,5.2-3.4,9
		c0,3.9,1.1,6.9,3.4,9c2.2,2.1,5.4,3.2,9.4,3.2c2.1,0,4-0.3,5.7-1L52.2,93.1z M45.9,91.1c-2.2,0-4.1-0.8-5.6-2.3
		c-1.5-1.5-2.2-3.8-2.2-6.8c0-3,0.7-5.2,2.2-6.7c1.5-1.5,3.4-2.3,5.8-2.3c2.3,0,4.3,0.8,5.8,2.2c1.5,1.5,2.2,3.7,2.2,6.7
		c0,1.4-0.2,2.7-0.6,3.8c-0.4,1.1-0.9,2.1-1.7,2.9L51.5,89l-0.4-0.2c-1.5-1-3-1.8-4.6-2.3l-1,1.9c1,0.4,2,0.8,2.9,1.4l0.9,0.6
		l-1,0.3C47.6,91,46.8,91.1,45.9,91.1z M46.1,74.1c-2.1,0-3.8,0.6-5.1,2c-1.3,1.3-1.9,3.3-1.9,6c0,2.7,0.7,4.8,1.9,6.1
		c1.3,1.3,2.9,2,4.9,2c0.3,0,0.6,0,0.9-0.1c-0.7-0.4-1.4-0.6-2.1-0.9L44.1,89l2-3.7l0.4,0.1c1.7,0.5,3.4,1.3,4.9,2.3
		c0.5-0.6,0.9-1.4,1.2-2.2c0.3-1,0.5-2.2,0.5-3.5c0-2.7-0.6-4.7-1.9-6C49.8,74.7,48.2,74.1,46.1,74.1z"/>
	<path fill="#FFFFFF" d="M77.7,94.3v-2.7c-0.7,1-1.7,1.7-2.8,2.3s-2.4,0.8-3.7,0.8c-1.3,0-2.5-0.3-3.6-0.8c-1-0.5-1.8-1.3-2.3-2.2
		c-0.5-1-0.7-2.3-0.7-3.9V76.5h5.2v8.2c0,2.5,0.1,4,0.3,4.6s0.5,1,1,1.3c0.5,0.3,1.1,0.5,1.9,0.5c0.9,0,1.7-0.2,2.4-0.7
		c0.7-0.4,1.2-1,1.4-1.6s0.4-2.3,0.4-4.8v-7.5h5.2v17.8H77.7z"/>
	<path fill="#FFFFFF" d="M71.2,95.2c-1.4,0-2.7-0.3-3.8-0.8c-1.1-0.6-2-1.4-2.5-2.4c-0.5-1-0.7-2.4-0.7-4.2V76h6.2v8.7
		c0,3,0.1,4.1,0.3,4.4c0.2,0.5,0.4,0.8,0.8,1.1c0.4,0.3,1,0.4,1.6,0.4c0.8,0,1.5-0.2,2.1-0.6c0.6-0.4,1-0.9,1.2-1.4
		c0.2-0.4,0.4-1.5,0.4-4.6v-8H83v18.8h-5.8v-1.9c-0.6,0.6-1.3,1-2.1,1.4C73.9,94.9,72.5,95.2,71.2,95.2z M65.2,77v10.8
		c0,1.6,0.2,2.8,0.6,3.7c0.4,0.9,1.1,1.5,2,2c1.9,1,4.6,1,6.8,0c1.1-0.5,2-1.2,2.6-2.1l0.9-1.2v3.7H82V77h-4.2v7
		c0,3.5-0.2,4.5-0.4,5c-0.3,0.7-0.8,1.4-1.6,1.9c-0.8,0.5-1.7,0.7-2.7,0.7c-0.9,0-1.6-0.2-2.2-0.6c-0.6-0.4-1-0.9-1.2-1.6
		c-0.1-0.4-0.3-1.3-0.3-4.8V77H65.2z"/>
	<path fill="#FFFFFF" d="M93.1,81.9l-4.7-0.8c0.5-1.7,1.4-3,2.7-3.8s3.2-1.2,5.7-1.2c2.3,0,4,0.3,5.2,0.8c1.1,0.5,1.9,1.1,2.4,1.9
		s0.7,2.2,0.7,4.2l-0.1,5.5c0,1.6,0.1,2.7,0.3,3.5c0.2,0.8,0.5,1.5,0.9,2.4h-5.1c-0.1-0.3-0.3-0.8-0.5-1.4c-0.1-0.3-0.1-0.5-0.2-0.6
		c-0.9,0.8-1.8,1.4-2.8,1.8c-1,0.4-2.1,0.6-3.2,0.6c-2,0-3.6-0.5-4.8-1.5c-1.2-1-1.8-2.3-1.8-3.8c0-1,0.3-1.9,0.8-2.7
		s1.3-1.4,2.2-1.8c1-0.4,2.3-0.8,4.1-1.1c2.4-0.4,4.1-0.8,5.1-1.1v-0.5c0-0.9-0.2-1.6-0.7-1.9s-1.4-0.6-2.8-0.6
		c-0.9,0-1.6,0.2-2.2,0.5S93.4,81.1,93.1,81.9z M100,85.8c-0.7,0.2-1.7,0.4-3.2,0.7S94.5,87,94,87.3c-0.7,0.4-1,1-1,1.7
		c0,0.7,0.3,1.2,0.8,1.7c0.5,0.5,1.2,0.7,2.1,0.7c0.9,0,1.8-0.3,2.7-0.8c0.6-0.4,1-1,1.2-1.6c0.1-0.4,0.2-1.2,0.2-2.3V85.8z"/>
	<path fill="#FFFFFF" d="M94.3,95.2c-2.1,0-3.8-0.5-5.1-1.6c-1.3-1.1-1.9-2.5-1.9-4.2c0-1.1,0.3-2.1,0.9-3c0.6-0.9,1.4-1.5,2.4-2
		c1-0.4,2.4-0.8,4.2-1.1c2.1-0.4,3.7-0.7,4.6-1v-0.1c0-0.7-0.2-1.3-0.5-1.6c-0.3-0.2-0.9-0.5-2.5-0.5c-0.8,0-1.5,0.1-1.9,0.4
		c-0.4,0.3-0.8,0.8-1,1.5l-0.1,0.4l-5.7-0.9l0.2-0.5c0.6-1.8,1.6-3.2,2.9-4.1c1.4-0.9,3.4-1.3,6-1.3c2.4,0,4.2,0.3,5.4,0.8
		c1.2,0.5,2.1,1.2,2.6,2.1c0.5,0.9,0.8,2.3,0.8,4.5l-0.1,5.5c0,1.5,0.1,2.6,0.2,3.4c0.2,0.7,0.5,1.5,0.9,2.3l0.4,0.7h-6.3l-0.1-0.3
		c-0.1-0.3-0.3-0.7-0.5-1.3c-0.8,0.6-1.6,1-2.4,1.4C96.7,95,95.6,95.2,94.3,95.2z M96.5,79.2c1.5,0,2.5,0.2,3.1,0.7
		c0.6,0.5,0.9,1.3,0.9,2.3V83l-0.3,0.1c-1,0.4-2.7,0.8-5.1,1.2c-1.7,0.3-3.1,0.7-4,1.1c-0.9,0.4-1.5,0.9-2,1.6
		c-0.5,0.7-0.7,1.5-0.7,2.4c0,1.4,0.5,2.5,1.6,3.4c1.1,0.9,2.6,1.4,4.4,1.4c1.1,0,2.1-0.2,3.1-0.6c0.9-0.4,1.9-0.9,2.7-1.7l0.5-0.5
		l0.2,0.7c0,0.1,0.1,0.3,0.2,0.6c0.1,0.4,0.2,0.8,0.3,1h4c-0.3-0.6-0.5-1.2-0.6-1.8c-0.2-0.8-0.3-2-0.3-3.6l0.1-5.5
		c0-2.4-0.3-3.5-0.6-4c-0.4-0.7-1.1-1.2-2.2-1.7c-1.1-0.5-2.7-0.7-5-0.7c-2.4,0-4.3,0.4-5.5,1.2c-1,0.7-1.8,1.7-2.3,3l3.7,0.6
		c0.3-0.7,0.8-1.3,1.3-1.6C94.6,79.4,95.5,79.2,96.5,79.2z M95.9,91.9c-1,0-1.8-0.3-2.4-0.8c-0.7-0.6-1-1.3-1-2.1
		c0-0.9,0.4-1.6,1.3-2.1c0.5-0.3,1.5-0.6,3-0.9c1.4-0.3,2.5-0.5,3.1-0.7l0.6-0.2v1.6c0,1.2-0.1,2-0.2,2.5c-0.2,0.7-0.7,1.3-1.4,1.8
		C97.9,91.6,96.9,91.9,95.9,91.9z M99.5,86.4C98.9,86.6,98,86.8,97,87c-1.7,0.3-2.4,0.6-2.7,0.8c-0.5,0.3-0.8,0.7-0.8,1.2
		c0,0.5,0.2,0.9,0.6,1.3c0.5,0.4,1,0.6,1.7,0.6c0.8,0,1.7-0.2,2.4-0.7c0.5-0.4,0.9-0.8,1-1.3c0.1-0.2,0.2-0.8,0.2-2.1V86.4z"/>
	<path fill="#FFFFFF" d="M111.5,74.1v-4.4h5.2v4.4H111.5z M111.5,94.3V76.5h5.2v17.8H111.5z"/>
	<path fill="#FFFFFF" d="M117.2,94.8H111V76h6.2V94.8z M112,93.8h4.2V77H112V93.8z M117.2,74.6H111v-5.4h6.2V74.6z M112,73.6h4.2
		v-3.4H112V73.6z"/>
	<path fill="#FFFFFF" d="M123.4,94.3V69.7h5.2v24.6H123.4z"/>
	<path fill="#FFFFFF" d="M129,94.8h-6.2V69.2h6.2V94.8z M123.9,93.8h4.2V70.2h-4.2V93.8z"/>
	<path fill="#FFFFFF" d="M144.2,76.5v3.8h-3.6v7.2c0,1.5,0,2.3,0.1,2.6c0.1,0.2,0.2,0.4,0.5,0.6s0.5,0.2,0.9,0.2
		c0.5,0,1.2-0.1,2.1-0.4l0.4,3.7c-1.2,0.5-2.6,0.7-4.1,0.7c-0.9,0-1.8-0.1-2.5-0.4s-1.3-0.6-1.6-1.1c-0.4-0.5-0.6-1.1-0.7-1.9
		c-0.1-0.5-0.2-1.7-0.2-3.3v-7.8H133v-3.8h2.4V73l5.2-2.8v6.3H144.2z"/>
	<path fill="#FFFFFF" d="M140.5,95.2c-1,0-1.9-0.2-2.7-0.5c-0.8-0.3-1.5-0.7-1.9-1.3c-0.4-0.5-0.7-1.2-0.8-2.1
		c-0.1-0.6-0.2-1.7-0.2-3.4v-7.3h-2.4V76h2.4v-3.3l6.2-3.3V76h3.6v4.8h-3.6v6.7c0,2,0.1,2.3,0.1,2.4c0,0.1,0.1,0.2,0.3,0.3
		c0.4,0.3,1.2,0.2,2.5-0.3l0.6-0.2l0.6,4.6l-0.4,0.1C143.5,95,142.1,95.2,140.5,95.2z M133.5,79.8h2.4V88c0,1.6,0,2.7,0.1,3.2
		c0.1,0.7,0.3,1.3,0.6,1.6c0.3,0.4,0.8,0.7,1.4,0.9c0.7,0.3,1.5,0.4,2.3,0.4c1.3,0,2.5-0.2,3.6-0.5l-0.3-2.7c-1.4,0.4-2.2,0.4-2.8,0
		c-0.3-0.2-0.6-0.5-0.7-0.9c-0.1-0.2-0.1-0.7-0.1-2.7v-7.7h3.6V77h-3.6v-6l-4.2,2.2V77h-2.4V79.8z"/>
	<path fill="#FFFFFF" d="M146.6,76.5h5.5l4.7,12.6l4.6-12.6h5.4l-6.9,17.1l-1.2,3.1c-0.4,1-0.9,1.8-1.3,2.4s-0.9,1-1.4,1.3
		s-1.2,0.6-2,0.8c-0.8,0.2-1.7,0.3-2.7,0.3c-1,0-2-0.1-2.9-0.3l-0.5-3.7c0.8,0.1,1.5,0.2,2.2,0.2c1.2,0,2.1-0.3,2.7-1
		c0.6-0.6,1-1.5,1.3-2.5L146.6,76.5z"/>
	<path fill="#FFFFFF" d="M151.3,102.1c-1,0-2-0.1-3-0.3l-0.3-0.1l-0.6-4.7l0.7,0.1c2.1,0.4,3.6,0.2,4.4-0.6c0.5-0.5,0.9-1.3,1.2-2.1
		L145.9,76h6.6l4.3,11.7l4.2-11.7h6.5l-8.4,20.9c-0.5,1.1-0.9,1.9-1.4,2.5c-0.4,0.6-1,1.1-1.6,1.5c-0.6,0.4-1.3,0.7-2.1,0.9
		C153.2,102,152.3,102.1,151.3,102.1z M148.8,100.8c1.7,0.3,3.6,0.3,5-0.1c0.7-0.2,1.3-0.4,1.8-0.7c0.5-0.3,0.9-0.7,1.3-1.2
		c0.4-0.5,0.8-1.3,1.2-2.3l1.2-3.1L166,77h-4.3l-4.9,13.6l-5-13.6h-4.4l7.2,17.3l-0.1,0.2c-0.3,1.1-0.8,2-1.4,2.6
		c-0.9,1-2.5,1.3-4.7,1L148.8,100.8z"/>
	<path fill="#FFFFFF" d="M66.7,130.3v-24.4h5.5v20.3h13.6v4.1H66.7z"/>
	<path fill="#FFFFFF" d="M86.2,130.8H66.2v-25.4h6.5v20.3h13.6V130.8z M67.2,129.8h18.1v-3.1H71.6v-20.3h-4.5V129.8z"/>
	<path fill="#FFFFFF" d="M90.9,110.1v-4.4h5.2v4.4H90.9z M90.9,130.3v-17.8h5.2v17.8H90.9z"/>
	<path fill="#FFFFFF" d="M96.6,130.8h-6.2V112h6.2V130.8z M91.4,129.8h4.2V113h-4.2V129.8z M96.6,110.6h-6.2v-5.4h6.2V110.6z
		 M91.4,109.6h4.2v-3.4h-4.2V109.6z"/>
	<path fill="#FFFFFF" d="M100.4,112.5h2.9v-1.4c0-1.5,0.2-2.6,0.5-3.4c0.4-0.7,1-1.3,1.9-1.8c0.9-0.5,2.1-0.7,3.6-0.7
		c1.5,0,2.9,0.2,4.3,0.6l-0.7,3.3c-0.8-0.2-1.6-0.3-2.4-0.3c-0.8,0-1.3,0.2-1.6,0.5c-0.3,0.3-0.5,0.9-0.5,1.8v1.3h3.9v3.7h-3.9v14.1
		h-5.2v-14.1h-2.9V112.5z"/>
	<path fill="#FFFFFF" d="M109,130.8h-6.2v-14.1h-2.9V112h2.9v-0.9c0-1.6,0.2-2.8,0.6-3.6c0.4-0.8,1.1-1.5,2.2-2
		c1-0.5,2.3-0.8,3.8-0.8c1.5,0,3,0.2,4.5,0.6l0.4,0.1l-0.9,4.3l-0.5-0.1c-0.8-0.2-1.5-0.3-2.3-0.3c-0.6,0-1,0.1-1.3,0.3
		c-0.1,0.1-0.3,0.5-0.3,1.5v0.8h3.9v4.7H109V130.8z M103.8,129.8h4.2v-14.1h3.9V113H108v-1.8c0-1.1,0.2-1.8,0.6-2.2
		c0.4-0.4,1.1-0.6,2-0.6c0.6,0,1.3,0.1,2,0.2l0.5-2.4c-1.2-0.3-2.5-0.5-3.7-0.5c-1.4,0-2.5,0.2-3.3,0.7c-0.8,0.4-1.4,0.9-1.7,1.6
		c-0.3,0.7-0.5,1.7-0.5,3.1v1.9h-2.9v2.7h2.9V129.8z"/>
	<path fill="#FFFFFF" d="M128,124.6l5.2,0.8c-0.7,1.7-1.7,3-3.1,3.9s-3.2,1.3-5.4,1.3c-3.4,0-5.9-1-7.6-3c-1.3-1.6-1.9-3.7-1.9-6.1
		c0-3,0.8-5.3,2.5-6.9s3.8-2.5,6.4-2.5c2.9,0,5.2,0.9,6.9,2.6c1.7,1.8,2.5,4.4,2.5,8.1h-13c0,1.4,0.5,2.5,1.3,3.3s1.8,1.2,3,1.2
		c0.8,0,1.5-0.2,2.1-0.6C127.3,126.2,127.7,125.5,128,124.6z M128.3,119.9c0-1.4-0.4-2.4-1.2-3.1c-0.7-0.7-1.6-1.1-2.7-1.1
		c-1.1,0-2,0.4-2.8,1.1c-0.7,0.8-1.1,1.8-1.1,3.1H128.3z"/>
	<path fill="#FFFFFF" d="M124.6,131.2c-3.5,0-6.2-1.1-7.9-3.2c-1.4-1.7-2-3.9-2-6.5c0-3.1,0.9-5.5,2.7-7.3c1.8-1.8,4.1-2.7,6.8-2.7
		c3.1,0,5.5,0.9,7.2,2.8c1.8,1.8,2.6,4.7,2.6,8.4v0.5h-13c0.1,1,0.5,1.8,1.1,2.4c0.7,0.7,1.6,1,2.6,1c0.7,0,1.3-0.2,1.8-0.5
		c0.5-0.3,0.8-0.9,1.1-1.7l0.1-0.4l6.2,1l-0.2,0.6c-0.7,1.8-1.8,3.2-3.3,4.2C128.8,130.7,126.9,131.2,124.6,131.2z M124.1,112.6
		c-2.4,0-4.5,0.8-6.1,2.4c-1.6,1.6-2.4,3.8-2.4,6.6c0,2.3,0.6,4.3,1.8,5.8c1.5,1.9,3.9,2.8,7.2,2.8c2.1,0,3.8-0.4,5.1-1.3
		c1.2-0.7,2.1-1.8,2.7-3.1l-4.1-0.6c-0.3,0.8-0.8,1.4-1.3,1.8c-0.6,0.5-1.4,0.7-2.4,0.7c-1.3,0-2.4-0.4-3.3-1.3
		c-0.9-0.9-1.4-2.1-1.4-3.6l0-0.5H133c-0.1-3.2-0.9-5.6-2.4-7.2C129.1,113.4,126.9,112.6,124.1,112.6z M128.8,120.4H120v-0.5
		c0-1.4,0.4-2.6,1.3-3.4c0.8-0.8,1.9-1.3,3.1-1.3c1.2,0,2.2,0.4,3.1,1.2c0.8,0.8,1.3,2,1.3,3.5L128.8,120.4z M121,119.4h6.7
		c-0.1-1-0.4-1.7-1-2.3c-0.6-0.6-1.4-0.9-2.4-0.9c-1,0-1.8,0.3-2.4,1C121.4,117.7,121.1,118.5,121,119.4z"/>
</g>
</svg>
