<?xml version="1.0" encoding="utf-8"?>
<!-- Generator: Adobe Illustrator 16.0.0, SVG Export Plug-In . SVG Version: 6.00 Build 0)  -->
<!DOCTYPE svg PUBLIC "-//W3C//DTD SVG 1.1//EN" "http://www.w3.org/Graphics/SVG/1.1/DTD/svg11.dtd">
<svg version="1.1" xmlns="http://www.w3.org/2000/svg" xmlns:xlink="http://www.w3.org/1999/xlink" x="0px" y="0px" width="200px"
	 height="200px" viewBox="0 0 200 200" enable-background="new 0 0 200 200" xml:space="preserve">
<g id="圖層_1">
</g>
<g id="圖層_2">
	<circle opacity="0.8" fill="#998675" cx="100" cy="100" r="100"/>
	<path fill="#00FF00" stroke="#8EFF0C" stroke-width="5" stroke-linejoin="round" stroke-miterlimit="10" d="M101.9,120.6
		c0,0-18.2,10.8-20.4-4.4c0,0-12.5,11.1-16.6-7.6c0,0-24.6-3.9-9.7-23.5c0,0-15.9,2.3-2.4-16.1c7.3-11.3,13.3-9.4,13.3-9.4
		S54.8,50.1,72.3,46c8.1-1.4,12.5,2.1,12.5,2.1s3.6-5.8,9.7-0.7c0,0,15.6-18.4,28.2,3c0,0,19.9-9.2,18.7,17.3c0,0,21.5,7.1,4.5,21.7
		c0,0,8,7.6-2.1,16.8s-16.8,2.5-16.8,2.5S135.6,124.7,101.9,120.6z"/>
	<path fill="#754C24" stroke="#8C6239" stroke-width="2" stroke-miterlimit="10" d="M80.2,105.8c0,0,16.8,7,14.1,24.2
		C91.5,147.1,76,150.9,76,150.9s11.6,3,18.5,0l7.7,9.1l5.2-10.2c0,0,11.3,5.1,17.4-0.8c0,0-11-3.2-9.7-21.7
		c1.4-18.5,9.7-29.5,9.7-29.5s-19,6.7-22.6,17.5C102.3,115.2,103.6,104.7,80.2,105.8z"/>
</g>
</svg>
